<svg version="1.1" id="Layer_1" xmlns="http://www.w3.org/2000/svg" x="0px" y="0px" viewBox="0 0 1920 656.5" style="enable-background:new 0 0 1920 656.5" xml:space="preserve"><path style="fill:#4081CB" d="M1285.737,162.484l-8.176,0.731c0,0-172.098,13.676-239.073,24.843 c-66.986,11.167-247.291,40.716-299.178,45.912c-51.871,5.196-217.707,20.724-337.949-1.031 c-35.053-6.336-73.007-16.488-105.279-26.391c-60.059,25.461-110.911,34.322-149.126,36.189 c-15.239,0.747-28.441,0.366-39.471-0.502c14.983,10.058,31.362,20.148,48.682,28.55c17.698,8.569,42.494,20.027,73.338,31.529 c55.897,20.844,131.577,41.797,220.687,45.87c138.294,6.321,353.193-29.506,441.727-48.911 c57.706-12.657,163.65,128.496,272.574,148.869c35.31,6.593,58.145,34.384,70.74,57.811 c77.111-69.433,250.835-204.584,478.966-252.457C1636.97,211.333,1490.792,152.838,1285.737,162.484"/><path style="fill:#4081CB" d="M889.759,542.448l-168.162-0.397l43.33-105.077c-8.993,0-18.658-0.031-28.775-0.047l-45.31,105.248 l-29.261-0.078c0,0-226.657-0.533-266.039-0.622c-30.16-0.261-56.675-13.248-76.457-32.847 c-19.736-19.6-33.532-47.663-33.501-79.662c0.031-12.427,2.201-25.189,6.624-37.573c19.541-55.839,58.845-88.398,91.389-103.696 c32.684-15.667,58.877-17.017,62.661-17.305l1.124-0.047l850.556,2.003l-0.062,24.952l9.938-10.638l13.201-14.084l165.412,0.397 l-0.91,270.854l-174.607-0.105l0.094-37.939l-45.08,37.589l-136.726-0.303l0.058-31.085l-33.987,31.148"/><path style="fill:#D52A30" d="M1810.192,236.813h-0.047c0,0-179.344-142.759-494.373-121.261l-8.141,0.895 c0,0-171.795,17.277-238.512,29.872c-66.745,12.567-246.408,45.916-298.143,52.221c-51.778,6.289-217.225,25.329-337.891,6.107 c-35.675-5.698-66.488-12.762-92.607-20.024c-8.417,4.072-16.087,7.9-22.684,11.198c24.142,6.974,52.039,13.75,83.809,19.506 c120.242,21.758,286.066,6.216,337.953,1.035c51.871-5.212,232.188-34.765,299.163-45.932 c67.006-11.167,239.088-24.839,239.088-24.839l8.157-0.731c227.361-10.681,382.396,62.432,451.268,104.093 c24.691-4.454,49.973-7.826,75.769-9.996c-0.926-0.731-1.851-1.447-2.793-2.143"/><path style="fill:#FFFFFF" d="M1327.749,288.152l-8.584,9.148l-36.951,39.503l0.121-48.939l-834.648-1.976l-0.669,0.047 c-2.431,0.167-26.772,1.396-56.671,15.768c-29.767,14.1-65.364,43.287-83.474,94.886c-3.847,10.77-5.714,21.758-5.729,32.392 c-0.062,27.426,11.789,51.584,28.915,68.632c17.169,17.044,40.172,28.122,65.528,28.32c39.366,0.074,266.059,0.607,266.059,0.607 l18.989,0.062l45.294-105.249c23.473,0.047,44.897,0.093,62.217,0.136L744.81,526.571l169.169,0.393l40.945-105.26l69.161,0.152 l-98.955,105.625l164.074,0.078l55.671-51.051l-0.105,51.02l115.548,0.272l66.306-55.317l-0.124,55.699l143.506,0.047 l0.821-239.757"/><polyline style="fill:#FFFFFF" points="989.931,435.925 967.294,435.788 950.989,477.481"/><path style="fill:#2A3E92" d="M448.386,314.71c0,0-83.233,3.983-114.381,91.541c-16.939,47.678,22.244,90.783,61.626,90.876 l266.055,0.622l33.155-77.033l-243.888-0.576c0,0-23.96,1.638-16.196-14.664c6.896-14.45,18.444-13.582,22.392-13.567 c2.419,0,142.168,0.35,250.119,0.576l33.244-77.076"/><path style="fill:#2A3E92" d="M771.979,315.469l-33.349,77.095c53.178,0.152,92.56,0.226,92.56,0.226l-43.365,105.112 l106.446,0.226l40.977-105.275l115.275,0.272l72.459-76.788"/><polyline style="fill:#2A3E92" points="1340.222,316.974 1253.221,409.942 1253.466,316.608 1162.134,316.383 1090.15,393.202 1090.407,393.202 991.557,498.722 1077.995,498.765 1173.85,410.887 1173.636,498.811 1249.91,498.994 1355.583,410.825 1355.353,499.418 1441.305,499.434 1441.911,317.203"/></svg>