<svg version="1.1" id="Calque_1" xmlns="http://www.w3.org/2000/svg" x="0px" y="0px" viewBox="0 0 790.6 416.9" style="enable-background:new 0 0 790.6 416.9" xml:space="preserve"><style>.st0{fill:#3C9948}.st1{fill:#EF7E1E}.st2{fill:#FFFFFF}.st3{fill:#1D1D1B}</style><path class="st0" d="M182.7,198.5h-12.1v-33.7c0-7-3.7-9.7-9.6-9.7c-1.1,0-2.9,0-4.8,1.1c-0.6,0.3-0.9,0.3-2.1,2.3 c-2.5,4.2-2.5,9.4-2.4,11.6c0.1,9.5,0.2,19,0.2,28.4c-4.6,0-9.1,0-13.7,0v-33.7c0-0.7,0.2-5.6-3.2-8.4c-0.5-0.4-1.6-1.3-3.4-1.6 c-2.1-0.4-3.8,0.3-4.6,0.6c-0.4,0.2-2.3,1-3.9,3c-1.7,2.2-2,4.5-2.5,8.3c-0.2,2-0.4,4.8-0.2,8.2c0.1,7.8,0.2,15.5,0.3,23.3 c-4.8,0.1-9.7,0.2-14.5,0.4v-54.2c4.8,0,9.6,0,14.4,0c0,1.9,0,3.8,0,5.7c0.9-1.2,2.9-3.6,6.3-5.2c1.2-0.6,3.9-1.6,7.5-1.6 c0.9,0,4.1,0.1,7.7,2c3.2,1.7,5.1,3.9,6.1,5.2c1.5-1.7,4.5-4.6,9.2-6.2c3.7-1.2,6.7-1.1,8.7-1c2.4,0.1,5.4,0.3,8.5,2.1 c1.2,0.7,2.4,1.6,3.4,2.8c3,3.3,4.5,7.3,4.5,12.1V198.5z"/><path class="st1" d="M650.7,198.5h-12.1v-33.7c0-7-3.7-9.7-9.6-9.7c-1.1,0-2.9,0-4.8,1.1c-0.6,0.3-0.9,0.3-2.1,2.3 c-2.5,4.2-2.5,9.4-2.4,11.6c0.1,9.5,0.2,19,0.2,28.4c-4.6,0-9.1,0-13.7,0v-33.7c0-0.7,0.2-5.6-3.2-8.4c-0.5-0.4-1.6-1.3-3.4-1.6 c-2.1-0.4-3.8,0.3-4.6,0.6c-0.4,0.2-2.3,1-3.9,3c-1.7,2.2-2,4.5-2.5,8.3c-0.2,2-0.4,4.8-0.2,8.2c0.1,7.8,0.2,15.5,0.3,23.3 c-4.8,0.1-9.7,0.2-14.5,0.4v-54.2c4.8,0,9.6,0,14.4,0c0,1.9,0,3.8,0,5.7c0.9-1.2,2.9-3.6,6.3-5.2c1.2-0.6,3.9-1.6,7.5-1.6 c0.9,0,4.1,0.1,7.7,2c3.2,1.7,5.1,3.9,6.1,5.2c1.5-1.7,4.5-4.6,9.2-6.2c3.7-1.2,6.7-1.1,8.7-1c2.4,0.1,5.4,0.3,8.5,2.1 c1.2,0.7,2.4,1.6,3.4,2.8c3,3.3,4.5,7.3,4.5,12.1V198.5z"/><path class="st0" d="M247.3,144.3V199h-14v-27.4c0-2.1-0.4-4.1-1.2-5.9c-0.8-1.8-1.9-3.4-3.3-4.8c-1.4-1.4-3-2.5-4.8-3.2 c-1.8-0.8-3.7-1.2-5.7-1.2c-2.1,0-4,0.4-5.8,1.2c-1.8,0.8-3.4,1.9-4.7,3.2c-1.4,1.4-2.5,3-3.3,4.8c-0.8,1.9-1.2,3.9-1.2,6 c0,2.1,0.4,4,1.2,5.8c0.8,1.8,1.9,3.4,3.3,4.8c1.4,1.4,3,2.5,4.7,3.3c1.8,0.8,3.7,1.2,5.8,1.2c2.2,0,4.1-0.4,5.7-1.2h0.1v0.2 c1.3,3.6,2.5,7.2,3.8,10.8c-0.4,0.3-0.8,0.6-1.3,0.9c-2.2,1-5.7,2.3-10.2,2.4c-1,0-4.1,0-7.9-1.2c-1-0.3-1.9-0.6-2.8-1 c-3.3-1.5-6.3-3.5-8.7-6c-2.5-2.6-4.5-5.5-5.9-9c-1.5-3.4-2.2-7.1-2.2-10.9c0-3.9,0.7-7.6,2.2-11.1c1.5-3.4,3.4-6.4,5.9-9 c2.5-2.6,5.4-4.6,8.7-6.1c3.3-1.5,6.9-2.2,10.7-2.2c3.7,0,6.9,0.7,9.7,2.1c2.8,1.4,5.2,3.5,7.1,6.1v-7.4H247.3z"/><path class="st1" d="M714.9,144.3V199h-14v-27.4c0-2.1-0.4-4.1-1.2-5.9c-0.8-1.8-1.9-3.4-3.3-4.8c-1.4-1.4-3-2.5-4.8-3.2 c-1.8-0.8-3.7-1.2-5.7-1.2c-2.1,0-4,0.4-5.8,1.2c-1.8,0.8-3.4,1.9-4.7,3.2c-1.4,1.4-2.5,3-3.3,4.8c-0.8,1.9-1.2,3.9-1.2,6 c0,2.1,0.4,4,1.2,5.8c0.8,1.8,1.9,3.4,3.3,4.8c1.4,1.4,3,2.5,4.7,3.3c1.8,0.8,3.7,1.2,5.8,1.2c2.2,0,4.1-0.4,5.7-1.2h0.1v0.2 c1.3,3.6,2.5,7.2,3.8,10.8c-0.4,0.3-0.8,0.6-1.3,0.9c-2.2,1-5.7,2.3-10.2,2.4c-1,0-4.1,0-7.9-1.2c-1-0.3-1.9-0.6-2.8-1 c-3.3-1.5-6.3-3.5-8.7-6c-2.5-2.6-4.5-5.5-5.9-9c-1.5-3.4-2.2-7.1-2.2-10.9c0-3.9,0.7-7.6,2.2-11.1c1.5-3.4,3.4-6.4,5.9-9 c2.5-2.6,5.4-4.6,8.7-6.1c3.3-1.5,6.9-2.2,10.7-2.2c3.7,0,6.9,0.7,9.7,2.1c2.8,1.4,5.2,3.5,7.1,6.1v-7.4H714.9z"/><path class="st0" d="M392.9,142.9c4,0,7.8,0.8,11.2,2.3c3.5,1.5,6.5,3.6,9.1,6.2c2.6,2.6,4.7,5.6,6.2,9.1c1.5,3.5,2.3,7.2,2.3,11.1 c0,3.9-0.8,7.6-2.3,11.1c-1.5,3.5-3.6,6.5-6.2,9.1c-2.6,2.6-5.6,4.7-9.1,6.2c-3.5,1.5-7.2,2.3-11.2,2.3s-7.8-0.8-11.2-2.3 c-3.5-1.5-6.5-3.6-9.1-6.2c-2.6-2.6-4.7-5.6-6.2-9.1c-1.5-3.5-2.3-7.2-2.3-11.1c0-3.9,0.8-7.6,2.3-11.1c1.5-3.5,3.6-6.5,6.2-9.1 c2.6-2.6,5.6-4.7,9.1-6.2C385.1,143.7,388.9,142.9,392.9,142.9z M392.9,187.1c1.9,0,3.6-0.4,5.2-1.2c1.6-0.8,3-1.9,4.2-3.4 c1.2-1.4,2.2-3.1,2.9-5c0.7-1.9,1.1-4,1.1-6.2c0-2.1-0.4-4.1-1.1-6c-0.7-1.9-1.7-3.5-2.9-4.9c-1.2-1.4-2.6-2.5-4.2-3.3 c-1.6-0.8-3.3-1.2-5.2-1.2c-1.9,0-3.6,0.4-5.2,1.2c-1.6,0.8-3.1,1.9-4.3,3.3c-1.2,1.4-2.2,3-2.9,4.9c-0.7,1.9-1.1,3.9-1.1,6 c0,2.2,0.4,4.3,1.1,6.2c0.7,1.9,1.7,3.6,2.9,5c1.2,1.4,2.7,2.6,4.3,3.4C389.3,186.7,391,187.1,392.9,187.1z"/><path class="st0" d="M478.6,146v53.2h-13v-6.3c-2,2.3-4.5,4.1-7.3,5.3c-2.8,1.2-5.9,1.8-9.2,1.8c-7,0-12.5-2-16.6-6 c-4.1-4-6.1-10-6.1-17.9v-30h12.9l-0.4,27.8c0,8.6,6.5,13.9,13.7,13.9c3.7,0,7.4-1.9,9.6-4.4c2.2-2.4,2.7-6.3,2.7-11.1V146H478.6z"/><path class="st0" d="M504.1,197.9l3.6-10.9c5.8,2.3,12.4,1.3,16.9-2.7c5.8-5.1,5.3-12.5,5.2-13.4c-0.8-8.5-7.9-14.9-16-14.8 c-4.1,0-7.9,1.7-10.8,4.5c-3.1,3-4.8,7.2-4.8,11.5l-0.5,21.6v6.4l-12-0.4v-76.4l12.7,0.4v26.9c3.8-4.5,11.6-7.1,18.3-7.1 c4.9,0,9.3,1.2,13.3,3.6c4,2.4,7.1,5.7,9.4,10c2.3,4.3,3.4,9.3,3.4,15c0,5.7-1.1,10.7-3.4,15c-2.3,4.3-5.4,7.6-9.4,10 c-4,2.4-8.4,3.6-13.3,3.6C506.9,200.4,504.1,197.9,504.1,197.9z"/><path class="st0" d="M274.3,145.5c2.7-1.4,5.8-2.1,9.3-2.1v14.9c-1.5-0.1-2.5-0.2-3-0.2c-3.8,0-6.7,1.3-8.9,3.9 c-2.1,2.6-3.2,6.5-3.2,11.6v26.3h-13.2v-55.7h12.6v7.3C269.5,148.9,271.6,146.9,274.3,145.5z"/><rect x="552.1" y="186.7" class="st1" width="12.6" height="12.6"/><polygon class="st0" points="319.9,113.6 319.9,142.7 292.7,178 292.7,113.6"/><polygon class="st0" points="373,218.3 343.9,218.3 323.6,183.1 340.1,161.3"/><polygon class="st0" points="370.9,113.6 293,219.2 292.7,218.9 292.7,182.6 343.6,113.6"/><rect x="306.3" y="176.5" transform="matrix(0.6247 -0.7809 0.7809 0.6247 -22.0656 308.6184)" class="st2" width="7.5" height="1.5"/><rect x="322" y="156.1" transform="matrix(0.6247 -0.7809 0.7809 0.6247 -0.2242 313.2003)" class="st2" width="7.5" height="1.5"/><rect x="336.4" y="136.8" transform="matrix(0.6247 -0.7809 0.7809 0.6247 20.2239 317.2269)" class="st2" width="7.5" height="1.5"/><polygon class="st2" points="359.1,113.6 354.3,119.6 353.1,118.6 357.1,113.6"/><polygon class="st2" points="298.4,195.4 292.8,203 292.7,200.5 297.2,194.5"/><path class="st3" d="M227,264.1v24.3c0,3.7-0.8,6.5-2.4,8.3c-1.6,1.8-3.8,2.7-6.6,2.7c-2.4,0-5.1-0.6-8.1-1.8 c0.3-0.7,0.6-1.4,0.8-1.9c0.2-0.5,0.3-0.9,0.5-1.4s0.2-0.6,0.3-0.6c2.2,0.8,4.2,1.2,6,1.2c1.6,0,3-0.5,4-1.4c1-1,1.5-2.7,1.5-5.1 v-24.3H227z"/><path class="st3" d="M239.1,288H235v-38.3h4.1V288z"/><path class="st3" d="M281.8,252.8V288h-35.7v-4.2h15.5v-11.2c0-1.2-0.6-2.1-1.7-2.7c-1.2-0.6-2.5-0.8-4.2-0.8 c-1.1,0-2.2,0.1-3.3,0.3c-1.2,0.2-2.2,0.6-3.3,1.1l-0.8-4c2.4-1.1,5-1.6,7.7-1.6c1.3,0,2.6,0.2,3.8,0.5c1.2,0.3,2.3,0.8,3.2,1.4 c0.9,0.6,1.6,1.4,2.2,2.4c0.5,1,0.8,2.1,0.8,3.5v11.2h5.6v0h6.2v-31.1H281.8z"/><path class="st3" d="M294.6,288h-4.1v-35.2h4.1V288z"/><path class="st3" d="M346.5,287.1h0.4v0L346.5,287.1z M322,259.1l0,4.8h4.1l0.1-4.8H322z"/><path class="st3" d="M343.3,287.1c0.3,0.1,0.6,0.1,0.7,0.1l2.5-0.1H343.3z M351.4,275v1.2c0-1.1,0.2-2.1,0.5-3.2 C351.6,273.9,351.4,274.7,351.4,275z"/><path class="st3" d="M369.8,273.6c-0.3-1.6-0.7-2.9-1.1-3.8c-1.9-3.7-5.8-6-9.9-5.9c-6.3,0.2-9.2,6.2-9.4,6.6c-1,2.3-1.1,4.4-1,5.6 l0.3,6.9l-2.9,0.1h-10.3v-17.7h-3.6v26.5c0,0.4-0.1,0.7-0.4,1c-0.2,0.3-0.5,0.4-0.8,0.4h-7.1c-1,0-1.9-0.2-2.8-0.6 c-0.8-0.4-1.6-1-2.2-1.8c-0.7-0.7-1.2-1.6-1.5-2.6c-0.4-1-0.6-2-0.6-3.2v-12.9h-3.6v12.9c0,1.7,0.3,3.3,0.8,4.8 c0.5,1.5,1.3,2.8,2.3,3.9c1,1.1,2.1,2,3.4,2.6c1.3,0.6,2.7,1,4.2,1h7.1c1.3,0,2.4-0.5,3.3-1.6c0.9-1.1,1.4-2.4,1.4-3.8v-4.8h11.1 l0.4,0l4.1-0.2l9.3,0.1c0.7-0.1,6.7-1,8.9-5.7C370.6,278.5,370.1,275.2,369.8,273.6z M366.2,279.5c0,1.8-1.4,3.2-3.2,3.2h-11.6 v-2.9c0-0.9,0-2.1,0-3.6c0-1.1,0.2-2.1,0.5-3.2c0.3-0.7,0.7-1.6,1.3-2.4c0.1-0.1,0.2-0.2,0.3-0.4c0.4-0.5,0.8-0.9,1.4-1.3 c0.5-0.3,1.8-1.3,3.8-1.5c1.2-0.1,2.3,0.1,3.3,0.4c2.6,1,4.2,3.6,4.2,6.4V279.5z"/><path class="st3" d="M393.4,265.6v22.6c0,2.3-0.5,3.9-1.5,4.8c-1,0.9-2.4,1.3-4,1.3c-0.9,0-1.8-0.1-2.8-0.3l0.1,4.1 c1.2,0.2,2.3,0.3,3.4,0.3c2.8,0,5-0.8,6.6-2.5c1.6-1.7,2.4-4.3,2.4-7.8v-22.6H393.4z"/><path class="st3" d="M441.3,288c-0.8,0.1-1.4,0.4-2.9,0.5c-0.4,0-0.8,0.1-2.2,0.1c-1.3,0-2,0-3,0c-2.8,0-7.6,0.1-8.9,0.2 c-1.7,0.1-9.6,0.4-14.6-0.2c-0.7-0.1-2.2-0.3-3.4-1.4c-0.9-0.9-1.4-2.1-1.4-3.4v-31h3.7v29.7c0,1.6,1.3,3,3,3l5.5,0 c7.6,0.2,15.1,0.3,22.7,0.5c0.1-1.2,0.1-5-0.1-7.1c-0.2-2.8-0.4-4.2-1.1-5.4c-1.6-2.5-4.8-3.1-6.7-3.4c-1.7-0.3-2.5-0.2-6.3-0.1 c-2.7,0-4.9,0-6.3-0.1c0-1.3,0.1-2.7,0.1-4c0-1.2,0.3-5.6,3.7-8.5c2.6-2.3,5.9-2.7,8.3-2.9c2.1-0.2,3.8-0.1,5,0.1l-0.6,3.9 c-0.9-0.1-2.2-0.2-3.7-0.1c-2.4,0.2-4.6,0.3-6.4,1.7c-2.6,2-2.9,5.4-3,6.4c3.8-0.3,6.7,0,8.7,0.3c2.2,0.4,3.5,0.8,4.2,1.1 c0.9,0.4,2.7,1.1,4.2,2.5c2.7,2.6,3.2,6.2,3.3,7.5v7.5h11.1c1,0,1.8-0.8,1.8-1.8v-30.8h4.1v29c0,1.7-0.5,3.3-1.5,4.6 c-1.5,2.1-2.9,1.9-3.9,2.1c-0.2,0-1.3,0.1-3.5,0.1c-2.7,0.1-4.1,0.1-4.4,0.1C443.8,288.5,443.4,287.6,441.3,288z"/><path class="st3" d="M467.7,252.8v34.7h4.1v-34.7H467.7z"/><path class="st3" d="M551.1,252.2c0-0.4-0.1-0.7-0.1-1c-0.1-0.3-0.1-0.5-0.2-0.8l-1.9,0.5c0.1,0.3,0.1,0.6,0.2,0.9 c0,0.3,0.1,0.5,0.1,0.8c0.1,1,0,1.6-0.1,2c-0.2,0.4-0.4,0.6-0.7,0.6c-0.3,0-0.6-0.2-1-0.6c-0.4-0.4-0.6-1.2-0.7-2.1l0-0.5 c0-0.2,0-0.4,0-0.6l-1.9,0.5c0.1,0.3,0.2,0.6,0.2,0.8l0.1,0.7c0.1,0.9,0,1.6-0.3,2.1c-0.3,0.5-0.6,0.8-0.9,0.8 c-0.7,0.1-1.2-0.6-1.3-2.1c0-0.5,0-1.1,0.1-1.8l-2,0.5c-0.1,0.6-0.1,1.2-0.1,1.7c0.1,1.4,0.5,2.3,1.2,2.9c0.7,0.6,1.5,0.8,2.2,0.7 c0.5,0,0.9-0.2,1.3-0.6c0.4-0.4,0.8-0.8,1-1.5c0.3,0.3,0.6,0.6,1,0.8c0.4,0.2,0.8,0.3,1.2,0.2c0.6,0,1.1-0.2,1.4-0.6 c0.4-0.3,0.6-0.7,0.8-1.2c0.2-0.5,0.3-1,0.4-1.6C551.2,253.4,551.2,252.8,551.1,252.2z M550.2,240.7l-11.5,4.3l0.4,1.9l11.5-4.3 L550.2,240.7z"/><path class="st3" d="M580.8,245.3c-0.5-0.5-1.2-0.8-2-0.8c-0.8,0-1.4,0.3-2,0.8c-0.6,0.5-0.8,1.2-0.8,2c0,0.8,0.3,1.4,0.8,2 c0.6,0.6,1.2,0.8,2,0.8c0.8,0,1.4-0.3,2-0.8c0.5-0.6,0.8-1.2,0.8-2C581.6,246.5,581.3,245.8,580.8,245.3z M578.8,248.8 c-0.5,0-0.9-0.7-0.9-1.6c0-0.9,0.4-1.6,0.9-1.6c0.5,0,0.9,0.7,0.9,1.6C579.7,248.1,579.3,248.8,578.8,248.8z"/><path class="st3" d="M582.2,263.8c-3.7-0.4-7.7,1.4-9.8,4.4c-1.4,2-1.5,4-1.7,7.6c-0.2,2.8-0.3,5,1,7c1.1,1.8,2.8,2.7,3.7,3.1 h-17.3c0.1-2.1,0.1-5-0.1-8.4c-0.3-6.6-1-7.8-1.4-8.5c-2.6-3.9-8.1-4.2-8.8-4.2c-7.9-0.3-12.8,7.4-13.1,7.8c0-2.6,0-16.5-0.1-19.1 h-3.4v32.5H514c0.9-2,1.9-4,2.8-5.9c0.2-0.3,3.4-4.9,1.4-9.8c-1.8-4.3-6.5-5.9-9.8-5.9c-3.6,0-7.9,1.8-9.8,6 c-2.2,4.9,0.5,9.5,0.7,9.9c1.3,1.8,3,3.9,4.4,5.8c-4.4-1.6-8.9-0.5-10.9,2.4c-0.9,1.4-1.6,3.5-1.2,5.7c0.1,0.5,0.3,1.9,1.2,3.3 c1.7,2.5,4.6,3.2,6.9,3.7c1.1,0.2,2.7,0.5,4.7,0.4c-0.1-1.3-0.2-2.7-0.2-4c-0.5,0.2-4.5,1.3-7.3-0.9c-0.5-0.4-1.8-1.4-1.9-3.1 c-0.2-1.8,1.1-3.6,2.5-4.3c1-0.5,1.5-0.2,4.7-0.3c1.4,0,2.5-0.1,3.2-0.1h17.8c0,0,0.1,0,0.1,0c3.1,0,9.8-0.2,9.8-0.2 c0.4-0.1,0.2,0,8.8,0.1c3.3,0,6.1,0.1,8.4,0.1c0.8,0,1.6-0.2,2.2-0.6c2.4-1.4,2.7-1,4.4-0.9c0.7,0,1.5,0.9,2.5,1.4 c0.7,0.3,1.3,0.3,3.1,0.3c1.3,0,2.4-0.1,3.3-0.1h26c0.2-4.1,0.3-8.2,0.5-12.2C592,269.6,587.5,264.4,582.2,263.8z M511.6,283.8 c-0.4,0.7-1.1,1.2-1.9,1.3c-1.1,0.2-2.4,0.1-3.4-0.6c-0.4-0.3-0.9-0.7-2.1-3c-0.9-1.7-1.5-2.9-1.9-4c-1.3-2.1-1.3-5-0.1-6.9 c1.8-2.8,5.2-2.9,6-2.9c0.7,0,4.2,0,6.1,2.8c2.1,3.1,0.5,6.6,0.4,6.7c-0.5,1.3-1.1,2.6-1.8,3.9C512.5,282.2,512,283,511.6,283.8z M554.4,275.6c-0.1,2.3-0.3,4.6-0.4,6.9c-0.1,1.6-1.5,2.9-3.1,2.9l-16.1-0.1v-6.4c0-1.9,0.8-3.7,2.1-5c5.7-5.6,11.9-7.3,15-5.2 c0.5,0.3,1.7,1.3,2.3,3.7C554.5,273.4,554.5,274.5,554.4,275.6z M588.6,285.3h-7.4c-2.8,0-5.4-1.5-6.7-4c0-0.1-0.1-0.2-0.1-0.2 c-1.6-3.3-1.2-6.4-0.9-7.6c0.9-3.6,4.2-6.2,7.8-6.1c3.5,0.1,6.5,2.6,7.3,6.1V285.3z"/><rect x="581.2" y="255.5" class="st3" width="3.2" height="4.1"/><rect x="574.7" y="255.5" class="st3" width="3.2" height="4.1"/><path class="st3" d="M351.9,273c-0.3,1-0.5,2.1-0.5,3.2V275C351.4,274.7,351.6,273.9,351.9,273z"/><rect x="612.6" y="282.8" class="st3" width="98.5" height="2.4"/><rect x="108.1" y="282.8" class="st3" width="98.5" height="2.4"/></svg>