<svg width="450" height="450" viewBox="0 0 450 450" fill="none" xmlns="http://www.w3.org/2000/svg">
<g clip-path="url(#clip0_719_7)">
<path d="M450.23 0H0.230469V450H450.23V0Z" fill="url(#paint0_linear_719_7)"/>
<path d="M231.65 364.11C318.077 364.11 388.14 294.047 388.14 207.62C388.14 121.193 318.077 51.1299 231.65 51.1299C145.223 51.1299 75.1602 121.193 75.1602 207.62C75.1602 294.047 145.223 364.11 231.65 364.11Z" fill="url(#paint1_radial_719_7)"/>
<path opacity="0.5" d="M6.76953 173.26C6.76953 174.42 25.0095 175.45 53.9695 176.17C51.6095 176.84 50.3395 177.54 50.3395 178.26C50.3395 181.29 72.3995 183.92 104.64 185.21C101.96 185.77 100.47 186.38 100.47 187.02C100.47 189.64 125.22 191.76 155.74 191.76C157.08 191.76 158.4 191.75 159.71 191.75C162.01 193.08 175.35 194.1 191.47 194.1C209.21 194.1 223.58 192.87 223.58 191.34C223.58 190.28 216.64 189.36 206.46 188.9C209.38 188.32 211 187.69 211 187.02C211 186.8 210.81 186.58 210.46 186.36C243.48 185.91 268.51 183.74 268.51 181.14C268.51 180.56 267.27 180.01 265 179.49C311.39 179.14 344.86 178.14 344.86 176.97C344.86 175.93 318.45 175.02 280.04 174.59C285.41 174.18 288.35 173.73 288.35 173.27C288.35 172.77 284.99 172.3 278.89 171.87C361.28 171.26 422.2 169.11 422.2 166.54C422.2 164.71 391.36 163.09 343.91 162.09C349.02 161.64 351.8 161.16 351.8 160.65C351.8 159.33 332.71 158.15 302.91 157.39C304.07 157.16 304.7 156.92 304.7 156.67C304.7 154.89 273.18 153.44 234.31 153.44C195.43 153.44 163.92 154.88 163.92 156.67C163.92 156.75 164.01 156.83 164.14 156.92C121.4 157.6 92.0295 159.02 92.0295 160.66C92.0295 161.3 96.4895 161.9 104.44 162.44C65.4795 163.45 40.9595 164.91 40.9595 166.54C40.9595 167.79 55.4095 168.94 79.7295 169.87C36.2495 170.51 6.76953 171.79 6.76953 173.26Z" fill="#FBE2CB"/>
<path opacity="0.2" d="M18.7998 30.0101C18.7998 30.7501 33.1298 31.4101 55.8698 31.8701C54.0198 32.3001 53.0198 32.7401 53.0198 33.2101C53.0198 35.1501 70.3398 36.8301 95.6598 37.6501C93.5498 38.0101 92.3798 38.4001 92.3798 38.8101C92.3798 40.4901 111.82 41.8401 135.79 41.8401C136.84 41.8401 137.88 41.8401 138.91 41.8301C140.72 42.6801 151.2 43.3301 163.86 43.3301C177.79 43.3301 189.08 42.5401 189.08 41.5701C189.08 40.8901 183.63 40.3101 175.63 40.0101C177.92 39.6401 179.2 39.2301 179.2 38.8001C179.2 38.6601 179.05 38.5201 178.77 38.3801C204.7 38.0901 224.36 36.7101 224.36 35.0401C224.36 34.6701 223.38 34.3201 221.6 33.9801C258.03 33.7601 284.32 33.1201 284.32 32.3701C284.32 31.7001 263.58 31.1301 233.41 30.8501C237.63 30.5901 239.93 30.3001 239.93 30.0101C239.93 29.6901 237.29 29.3901 232.5 29.1101C297.21 28.7201 345.06 27.3401 345.06 25.7001C345.06 24.5301 320.84 23.5001 283.57 22.8601C287.58 22.5701 289.77 22.2601 289.77 21.9401C289.77 21.1001 274.77 20.3401 251.37 19.8501C252.28 19.7001 252.78 19.5501 252.78 19.3901C252.78 18.2501 228.03 17.3301 197.49 17.3301C166.95 17.3301 142.2 18.2501 142.2 19.3901C142.2 19.4401 142.27 19.4901 142.38 19.5501C108.81 19.9901 85.7498 20.8901 85.7498 21.9401C85.7498 22.3501 89.2498 22.7301 95.4998 23.0801C64.8998 23.7201 45.6498 24.6601 45.6498 25.7001C45.6498 26.5001 56.9998 27.2401 76.0998 27.8301C41.9498 28.2501 18.7998 29.0701 18.7998 30.0101Z" fill="#B64400"/>
<path opacity="0.6" d="M435.93 136.35C435.93 134.83 418.47 133.48 391.1 132.58C392.77 132.06 393.68 131.52 393.68 130.95C393.68 128.69 379.24 126.71 357.73 125.64C358.72 125.33 359.29 124.98 359.29 124.62C359.29 123.28 351.9 122.2 342.79 122.2C333.68 122.2 326.29 123.28 326.29 124.62C326.29 124.69 326.32 124.75 326.36 124.81C324.53 124.8 322.69 124.79 320.83 124.79C280.6 124.79 247.99 127.55 247.99 130.95C247.99 131.37 248.48 131.77 249.41 132.16C213.74 133.01 189.89 134.57 189.89 136.34C189.89 138.01 211.09 139.49 243.41 140.37C233.63 141 227.77 141.8 227.77 142.67C227.77 144.43 251.59 145.9 283.48 146.27C284.82 147.55 309.15 148.58 338.98 148.58C369.67 148.58 394.54 147.5 394.54 146.16C394.54 145.25 382.89 144.45 365.71 144.04C368.97 143.62 370.79 143.16 370.79 142.68C370.79 142.01 367.31 141.38 361.26 140.84C405.16 140.09 435.93 138.36 435.93 136.35Z" fill="#FBE2CB"/>
<path opacity="0.8" d="M448.76 96.3501C448.76 95.1801 427.05 94.1401 393.46 93.4801C415.2 92.4801 429.35 90.8501 429.35 89.0101C429.35 86.9401 411.54 85.1401 385.18 84.2001C392.94 83.6301 397.64 82.9001 397.64 82.0901C397.64 80.3001 374.5 78.8501 345.95 78.8501C317.4 78.8501 294.26 80.3001 294.26 82.0901C294.26 82.8301 298.26 83.5201 304.98 84.0601C276.45 84.9601 256.83 86.8401 256.83 89.0101C256.83 90.5001 266.04 91.8401 281 92.8401C217.94 93.1801 170.58 94.6301 170.58 96.3601C170.58 97.4001 187.63 98.3301 214.88 98.9901C213.24 99.4101 212.37 99.8601 212.37 100.31C212.37 103.22 247.62 105.6 292.31 105.81C291 106.1 290.28 106.4 290.28 106.71C290.28 108.5 313.42 109.95 341.97 109.95C370.52 109.95 393.66 108.5 393.66 106.71C393.66 105.45 382.09 104.35 365.22 103.82C377.51 102.87 384.89 101.65 384.89 100.32C384.89 100.01 384.48 99.7101 383.71 99.4101C422.79 98.7601 448.76 97.6301 448.76 96.3501Z" fill="#F4C498"/>
<path opacity="0.6" d="M285.04 194.51C285.04 193.49 266.19 192.59 237.03 192.02C255.9 191.15 268.19 189.73 268.19 188.13C268.19 186.34 252.72 184.77 229.84 183.95C236.58 183.46 240.66 182.82 240.66 182.12C240.66 180.57 220.56 179.31 195.78 179.31C170.99 179.31 150.9 180.57 150.9 182.12C150.9 182.77 154.38 183.36 160.21 183.83C135.44 184.61 118.4 186.24 118.4 188.12C118.4 189.41 126.39 190.58 139.39 191.44C84.6298 191.74 43.5098 192.99 43.5098 194.49C43.5098 195.39 58.3198 196.2 81.9798 196.77C80.5598 197.14 79.7998 197.52 79.7998 197.92C79.7998 200.45 110.41 202.51 149.21 202.69C148.07 202.94 147.44 203.2 147.44 203.47C147.44 205.02 167.54 206.28 192.32 206.28C217.1 206.28 237.2 205.02 237.2 203.47C237.2 202.37 227.15 201.42 212.5 200.96C223.17 200.13 229.58 199.07 229.58 197.92C229.58 197.65 229.23 197.39 228.56 197.13C262.5 196.6 285.04 195.63 285.04 194.51Z" fill="#E9944A"/>
<path opacity="0.3" d="M121.42 105.39C125.87 104.3 128.52 102.95 128.52 101.48C128.52 100.87 128.05 100.28 127.2 99.72C136.47 99.11 142.23 98.27 142.23 97.33C142.23 96.32 135.56 95.42 125.02 94.81C125.09 94.63 125.13 94.44 125.13 94.25C125.13 91.98 119.54 90.03 111.5 89.16C111.78 88.89 111.93 88.61 111.93 88.33C111.93 85.94 101.44 84 88.5 84C75.56 84 65.07 85.94 65.07 88.33C65.07 90.18 71.32 91.75 80.13 92.38C79.32 92.93 78.86 93.52 78.8 94.13C58.01 94.53 42.79 95.81 42.79 97.33C42.79 98.3 48.96 99.17 58.79 99.78C58 100.32 57.57 100.89 57.57 101.48C57.57 103.95 65.03 106.1 76.04 107.2C75.54 107.35 75.28 107.51 75.28 107.67C75.28 108.96 92.31 110 113.32 110C134.33 110 151.36 108.96 151.36 107.67C151.37 106.55 138.54 105.62 121.42 105.39Z" fill="#FBE2CB"/>
<path opacity="0.6" d="M198.84 53.7402C195.21 54.6302 193.06 55.7302 193.06 56.9302C193.06 57.4302 193.44 57.9102 194.13 58.3602C186.58 58.8502 181.89 59.5402 181.89 60.3002C181.89 61.1202 187.32 61.8602 195.9 62.3502C195.84 62.5002 195.81 62.6502 195.81 62.8002C195.81 64.6502 200.36 66.2302 206.91 66.9502C206.68 67.1702 206.56 67.3902 206.56 67.6302C206.56 69.5802 215.1 71.1602 225.64 71.1602C236.18 71.1602 244.72 69.5802 244.72 67.6302C244.72 66.1302 239.63 64.8402 232.46 64.3302C233.12 63.8802 233.5 63.4002 233.54 62.9102C250.47 62.5902 262.87 61.5402 262.87 60.3002C262.87 59.5102 257.85 58.8002 249.84 58.3102C250.49 57.8702 250.84 57.4102 250.84 56.9302C250.84 54.9202 244.76 53.1702 235.8 52.2702C236.21 52.1502 236.42 52.0202 236.42 51.8902C236.42 50.8402 222.55 49.9902 205.44 49.9902C188.33 49.9902 174.46 50.8402 174.46 51.8902C174.45 52.7902 184.9 53.5502 198.84 53.7402Z" fill="#FBE2CB"/>
<path d="M300.12 261.5V314.99H450.22V258.48C426.26 267.66 350.85 262.23 300.12 261.5Z" fill="#B64400"/>
<path d="M233.089 263.94C207.079 261.3 152.949 270.26 76.5195 263.94C50.4395 261.78 16.5795 268.42 0.229492 258.3V284H156.799H184.369H340.939V264.2C314.459 266.23 282.189 268.94 233.089 263.94Z" fill="#DC6B28"/>
<path d="M0.229492 289.24H302.289L289.839 282.08L260.029 276.34L247.839 269.16L222.1 266.65L187.549 260.19C187.549 260.19 168.579 263.42 165.189 264.14C161.799 264.86 127.249 268.8 127.249 268.8L99.4695 275.98L61.5295 270.24C61.5295 270.24 47.2995 270.24 43.9195 269.88C40.5295 269.52 20.7995 265.61 20.7995 265.61L0.239492 270.32V289.24H0.229492Z" fill="#C35407"/>
<path d="M260.03 276.34L247.83 269.16L224.41 272.17L207.75 285.83L188.62 289.24L217.49 287.82L260.03 276.34Z" fill="#B64400"/>
<path d="M222.09 266.65L187.54 260.2L170.81 276.2L172.17 282.35L110.41 289.24H302.28L193.4 285.31L222.09 266.65Z" fill="#B64400"/>
<path d="M289.83 282.08L302.28 289.24H134.91L272.85 286.86L289.83 282.08Z" fill="#B64400"/>
<path d="M61.5299 270.24L99.4599 275.98L69.1399 289.24H19.3799L40.5299 287.2L52.3699 281.02L61.5299 270.24Z" fill="#B64400"/>
<path d="M20.7895 265.61L12.6795 279.63L0.229492 289.24L21.2095 283.66L43.9095 269.88L20.7895 265.61Z" fill="#B64400"/>
<path d="M450.229 266.83L448.379 266.65L413.829 260.19C413.829 260.19 394.859 263.42 391.469 264.14C388.079 264.86 353.529 268.8 353.529 268.8L326.029 275.9V289.23H450.229V266.83Z" fill="#C35407"/>
<path d="M450.229 272.56L434.039 285.83L414.909 289.24L443.779 287.82L450.229 286.08V272.56Z" fill="#B64400"/>
<path d="M450.229 289.24V286.41L419.689 285.31L448.379 266.65L413.829 260.2L397.099 276.2L398.459 282.35L336.699 289.24H450.229Z" fill="#B64400"/>
<path d="M450.229 287.7L361.199 289.24H450.229V287.7Z" fill="#B64400"/>
<path d="M0.229492 317.73H104.159L92.8295 303.45L65.7095 292L54.6095 277.68L31.1895 272.67L0.229492 259.98V317.73Z" fill="#C6621D"/>
<path d="M65.7595 293.29L52.1995 278.01L31.1395 274.37L3.04949 262.89L12.9495 274.04L15.3395 288.27L0.419492 292.27L0.229492 309.95L65.7595 293.29Z" fill="#C35407"/>
<path d="M0.229492 317.73H104.159L0.229492 313.17V317.73Z" fill="#B95215"/>
<path d="M0.229492 315.9V317.73H102.459L92.4895 304.64L75.3295 307.42L73.9395 310.43L90.0895 312.51L0.229492 315.9Z" fill="#B95215"/>
<path d="M65.5599 293.29L89.8899 303.71L75.1399 306.03L79.3199 302.78L69.5499 304.64L61.0299 313.61L33.7199 314.64L55.4699 311.38L62.0599 303.71L57.1799 304.41L27.9199 314.38L51.8599 300.96L58.1799 297.46L65.5599 293.29Z" fill="#CF6D38"/>
<path d="M30.9495 274.37L19.9295 280.89L16.5195 289.96L7.70949 296.24L0.229492 303.53V307.04L11.5095 296.94L19.7295 290.43L26.7995 282.17L53.3995 278.79L30.9495 274.37Z" fill="#CF6D38"/>
<path d="M450.229 260.28C446.139 261.81 433.779 266.47 431.219 267.66C428.139 269.09 396.699 276.96 396.699 276.96L371.429 291.27L336.909 279.82C336.909 279.82 323.969 279.82 320.879 279.1C317.799 278.38 299.839 270.57 299.839 270.57L281.139 279.97L241.819 317.71H450.229V260.28Z" fill="#C6621D"/>
<path d="M244.909 316.45L281.209 281.71L300.159 272.45L285.799 285.41L287.589 291.67L273.029 310.66L253.089 315.52L271.239 308.34L280.579 291.98L274.559 293.4L262.059 306.72L257.669 307.65L244.909 316.45Z" fill="#CF6D38"/>
<path d="M450.229 313.09L437.459 312.53L448.479 310.21L450.229 308.54V282.32L437.569 303.98L409.649 311.76L411.749 307.07L403.669 312.8L381.379 317.73H450.229V313.09Z" fill="#B95215"/>
<path d="M450.229 315.97L403.669 317.73H450.229V315.97Z" fill="#B95215"/>
<path d="M341.11 282.91L367.01 294.78L343.84 317.73H298.56L317.81 313.67L330.07 310.54L339.5 291.96L328.58 301.34L341.11 282.91Z" fill="#B95215"/>
<path d="M450.23 261.26L432.17 268.64L398.11 277.72L367.01 294.78L345.43 316.45L367.57 296.3L385.12 288.89L376.15 304.17L357.2 314.83L377.54 306.72L393.5 285.65L394.25 289.17L389.11 311.58L414.41 280.66L417.17 284L404.76 294.34L418.38 291.75L428.72 283.85L424.58 276.86L436.3 272.14L431.65 279.14L444.76 268.97L450.23 262.6V261.26Z" fill="#CF6D38"/>
<path d="M301.65 272.85L322.03 280.79L300.29 298.16L293.77 307.18L280.63 316.4L277.62 317.73H256.77L275.22 313.09L298.36 290.05L302.05 277.42L292.78 284.49L301.65 272.85Z" fill="#B95215"/>
<path d="M337.979 281.48L322.029 280.79L308.059 291.95L314.619 288.89L309.829 294.22L300.289 298.16L293.109 306.73L280.539 316.22L294.899 307.88L301.879 300.24L311.229 298.15L319.099 292.02L324.869 290.7L322.689 296.53L311.859 305.34L307.469 312.29L298.089 316.45L308.249 314.13L312.919 307.18L324.289 300.47L337.979 281.48Z" fill="#CF6D38"/>
<path d="M450.229 311.54L433.999 296L395.149 283.54L379.259 267.97L345.709 262.52L300.679 248.5C300.679 248.5 275.959 255.51 271.539 257.07C267.129 258.63 222.089 267.19 222.089 267.19L185.889 282.76L136.439 270.3C136.439 270.3 117.899 270.3 113.479 269.52C109.069 268.74 83.3395 260.24 83.3395 260.24L56.5495 270.47L0.229492 311.54H450.229Z" fill="#E97D32"/>
<path d="M4.64941 310.15L56.6494 272.35L83.7994 262.27L63.2294 276.38L65.7994 283.19L44.9394 303.85L16.3694 309.14L42.3694 301.33L55.7594 283.52L47.1394 285.07L29.2294 299.56L22.9394 300.57L4.64941 310.15Z" fill="#F28D56"/>
<path d="M394.939 284.95L378.649 270.59L348.729 274.5L339.489 286.92L351.039 277.96L335.099 299.15L302.079 311.54L339.719 308.45L394.939 284.95Z" fill="#C35407"/>
<path d="M345.36 264.37L303.8 251.31L278.87 283.24L301.13 263.08L302.11 268.68L280.65 296.59L240.65 305.05L243.65 299.94L232.08 306.18L184.3 302.82L232.75 316.75L450.23 311.54L271.25 309.5L296.27 303.36L326.65 281.41L345.36 264.37Z" fill="#C35407"/>
<path d="M345.36 264.37L328.14 258.96L331.47 264.03L323.54 265.7L287.93 300.24L220.27 317.12L250.88 312.62L296.27 303.36L326.65 281.41L345.36 264.37Z" fill="#B64400"/>
<path d="M433.509 297.3L447.799 311.54L315.319 319.53L430.079 305.86L406.939 303.6L408.939 300.32L433.509 297.3Z" fill="#DC6B28"/>
<path d="M394.94 284.95L429.8 296.29L408.65 298.81L414.65 295.28L400.65 297.3L388.45 307.06L349.32 308.18L380.49 304.63L389.93 296.29L382.94 297.05L341.01 307.9L375.32 293.3L384.37 289.49L394.94 284.95Z" fill="#F28D56"/>
<path d="M377.51 269.18L345.36 264.37L329.57 271.46L324.69 281.33L312.06 288.17L294.26 301.33L282.39 305.42L297.89 303.42L317.51 288.92L329.28 281.84L338.18 272.98L339.41 272.86L335.23 285.71L325.23 288.73L308.37 301.83L325.8 290.75L336.37 287.47L345.23 272.35L377.51 269.18Z" fill="#F28D56"/>
<path d="M142.46 273.66L179.57 286.58L146.37 311.54L63.8799 305.81L92.8299 303.45L130.98 297.24L140.15 283.5L124.51 293.71L142.46 273.66Z" fill="#C35407"/>
<path d="M160.779 283.71L179.569 286.58L156.369 304.26L134.909 308.8L136.399 305.57L159.059 295.24L143.639 297.97L160.779 283.71Z" fill="#B64400"/>
<path d="M301.299 249.32L272.909 258.14L224.119 268.01L179.569 286.58L148.649 310.15L180.369 288.23L205.509 280.16L192.649 296.79L165.509 308.38L194.649 299.56L217.509 276.64L232.939 270.59L246.629 269.93L242.369 286.71L211.229 304.86L243.999 290.34L263.509 270.34L265.889 283.8L232.079 306.18L268.069 287.63L272.649 281.42L274.939 265.3L278.309 264.06L282.649 271.09L290.939 258.49L301.299 249.32Z" fill="#F28D56"/>
<path d="M85.9394 262.71L115.129 271.35L83.9894 290.25L74.6494 300.07L55.8294 310.1L51.5094 311.54H21.6494L48.0794 306.49L81.2294 281.42L86.5094 267.69L73.2294 275.38L85.9394 262.71Z" fill="#C35407"/>
<path d="M94.9591 265.38L115.129 271.35L83.9891 290.25L74.6491 300.07L55.8291 310.1L48.0791 306.49L61.8691 303.71L81.0291 290.37L85.7591 283.43L94.9591 265.38Z" fill="#B64400"/>
<path d="M137.989 272.11L115.129 271.35L95.1192 283.49L104.509 280.16L97.6492 285.96L83.9892 290.25L73.6992 299.57L55.6992 309.9L76.2692 300.83L86.2692 292.52L99.6492 290.24L110.939 283.56L119.199 282.13L116.079 288.48L110.409 289.24L105.109 294.61L88.9992 299L106.249 297L113.669 294.87L118.369 292.76L137.989 272.11Z" fill="#F28D56"/>
<path d="M186.57 303.13C147.73 297.08 31.1997 316.88 0.219727 295.95V395.43H450.03L450.22 298.37C414.67 282.18 340.41 327.08 186.57 303.13Z" fill="#C35407"/>
<path opacity="0.2" d="M450.219 299.04H391.949C347.989 306.13 282.87 318.12 186.57 303.13C149.87 297.42 43.7995 314.77 6.09949 299.04H0.229492L56.5595 319.21L83.3495 324.23C83.3495 324.23 109.069 320.06 113.489 319.67C117.899 319.29 136.449 319.29 136.449 319.29L185.899 313.17L222.1 320.82C222.1 320.82 267.129 325.03 271.549 325.79C275.959 326.55 300.689 330 300.689 330L345.719 323.12L379.269 320.44L395.159 312.79L434.009 306.67L450.219 299.04Z" fill="#512500"/>
<path d="M186.65 326.25C306.65 352.42 385.51 338.23 450.22 327.58V431.37H0.219727V325.74C76.0797 302.3 123.1 312.39 186.65 326.25Z" fill="#DC6B28"/>
<path d="M230.65 340.89C353.25 361.06 419.79 378.15 450.22 364.84V431.37H0.219727V364.84C73.5097 334.68 152.88 328.1 230.65 340.89Z" fill="#C35407"/>
<path d="M191.799 339.56C153.18 333.84 24.9595 348.48 0.229492 360.85V450H450.229V364.84C418.939 375.48 350.199 363.03 191.799 339.56Z" fill="#E97D32"/>
<path d="M215.229 435.81C215.229 435.81 272.029 404.47 361.799 397.22C392.149 394.77 429.51 400.32 429.51 400.32C372.37 371.05 271.799 396.77 215.229 435.81Z" fill="#F28D56"/>
<path d="M215.229 435.81C233.519 421.62 342.369 355.53 429.519 400.33C339.799 367.5 215.229 435.81 215.229 435.81Z" fill="#DC6B28"/>
<path d="M49.2793 414.2C140.199 450.57 315.369 427.67 187.319 378.16C256.349 420.28 113.069 435.88 49.2793 414.2Z" fill="#DC6B28"/>
<path d="M15.4395 408.79C29.1495 398.14 95.6095 361.76 158.099 381.73C88.0095 374.19 15.4395 408.79 15.4395 408.79Z" fill="#F28D56"/>
<path d="M359.609 324.48C368.079 317.91 409.129 295.43 447.719 307.76C404.429 303.11 359.609 324.48 359.609 324.48Z" fill="#DC6B28"/>
<path d="M394.23 318.8C382.96 326.03 328.92 349 280.1 327.64C335.41 339.81 394.23 318.8 394.23 318.8Z" fill="#B64400"/>
<path d="M49.1699 321.1C74.4899 312.03 112.89 312.09 139.08 325.8C100.88 315.34 49.1699 321.1 49.1699 321.1Z" fill="#E97D32"/>
<path d="M140.47 305.64C162.1 301.06 194.44 304.86 216.03 318.1C184.21 306.22 140.47 305.64 140.47 305.64Z" fill="#DC6B28"/>
<path d="M282.14 390.61C279.01 390.61 276.47 391.32 276.47 392.19C276.47 393.06 279.01 393.77 282.14 393.77C285.27 393.77 287.81 393.06 287.81 392.19C287.82 391.32 285.28 390.61 282.14 390.61ZM280.78 392.02C279.61 392.02 278.66 391.75 278.66 391.42C278.66 391.09 279.61 390.82 280.78 390.82C281.95 390.82 282.9 391.09 282.9 391.42C282.9 391.75 281.94 392.02 280.78 392.02Z" fill="#DC6B28"/>
<path d="M288.599 418.13C286.399 418.13 284.609 418.63 284.609 419.24C284.609 419.85 286.389 420.35 288.599 420.35C290.799 420.35 292.589 419.85 292.589 419.24C292.579 418.63 290.799 418.13 288.599 418.13ZM287.629 419.12C286.809 419.12 286.139 418.93 286.139 418.7C286.139 418.47 286.809 418.28 287.629 418.28C288.449 418.28 289.119 418.47 289.119 418.7C289.119 418.93 288.449 419.12 287.629 419.12Z" fill="#F28D56"/>
<path d="M174.66 376.04C171.22 376.04 168.43 376.82 168.43 377.78C168.43 378.74 171.22 379.52 174.66 379.52C178.1 379.52 180.89 378.74 180.89 377.78C180.89 376.82 178.1 376.04 174.66 376.04ZM173.15 377.58C171.87 377.58 170.83 377.29 170.83 376.92C170.83 376.56 171.87 376.26 173.15 376.26C174.43 376.26 175.47 376.55 175.47 376.92C175.48 377.29 174.44 377.58 173.15 377.58Z" fill="#F28D56"/>
<path d="M53.9497 417.61C50.5097 417.61 47.7197 418.39 47.7197 419.35C47.7197 420.31 50.5097 421.09 53.9497 421.09C57.3897 421.09 60.1797 420.31 60.1797 419.35C60.1697 418.39 57.3797 417.61 53.9497 417.61ZM52.4397 419.15C51.1597 419.15 50.1197 418.86 50.1197 418.49C50.1197 418.13 51.1597 417.83 52.4397 417.83C53.7197 417.83 54.7597 418.12 54.7597 418.49C54.7697 418.86 53.7197 419.15 52.4397 419.15Z" fill="#DC6B28"/>
<path d="M61.3698 423.54C62.6511 423.54 63.6898 423.244 63.6898 422.88C63.6898 422.515 62.6511 422.22 61.3698 422.22C60.0885 422.22 59.0498 422.515 59.0498 422.88C59.0498 423.244 60.0885 423.54 61.3698 423.54Z" fill="#DC6B28"/>
<path d="M145.769 373.83C144.489 373.83 143.449 373.54 143.449 373.17C143.449 372.81 144.489 372.51 145.769 372.51C147.049 372.51 148.089 372.8 148.089 373.17C148.089 373.54 147.049 373.83 145.769 373.83Z" fill="#F28D56"/>
<path d="M151.649 377.07C152.93 377.07 153.969 376.775 153.969 376.41C153.969 376.045 152.93 375.75 151.649 375.75C150.368 375.75 149.329 376.045 149.329 376.41C149.329 376.775 150.368 377.07 151.649 377.07Z" fill="#F28D56"/>
<path d="M287.62 395.44C288.901 395.44 289.94 395.144 289.94 394.78C289.94 394.415 288.901 394.12 287.62 394.12C286.339 394.12 285.3 394.415 285.3 394.78C285.3 395.144 286.339 395.44 287.62 395.44Z" fill="#DC6B28"/>
<path d="M392.599 406.79C393.881 406.79 394.919 406.494 394.919 406.13C394.919 405.765 393.881 405.47 392.599 405.47C391.318 405.47 390.279 405.765 390.279 406.13C390.279 406.494 391.318 406.79 392.599 406.79Z" fill="#F28D56"/>
<path d="M397.39 408.69C395.52 408.69 394 408.26 394 407.73C394 407.2 395.52 406.77 397.39 406.77C399.26 406.77 400.78 407.2 400.78 407.73C400.78 408.26 399.26 408.69 397.39 408.69Z" fill="#F28D56"/>
<path d="M201.32 444.84C200.04 444.84 199 444.55 199 444.18C199 443.82 200.04 443.52 201.32 443.52C202.6 443.52 203.64 443.81 203.64 444.18C203.64 444.55 202.6 444.84 201.32 444.84Z" fill="#F28D56"/>
<path d="M206.52 438.81C204.33 438.81 202.55 438.31 202.55 437.69C202.55 437.07 204.33 436.57 206.52 436.57C208.71 436.57 210.49 437.07 210.49 437.69C210.49 438.31 208.71 438.81 206.52 438.81Z" fill="#DC6B28"/>
<path d="M34.5895 408.02C33.3095 408.02 32.2695 407.73 32.2695 407.36C32.2695 407 33.3095 406.7 34.5895 406.7C35.8695 406.7 36.9095 406.99 36.9095 407.36C36.9195 407.73 35.8795 408.02 34.5895 408.02Z" fill="#DC6B28"/>
<path opacity="0.4" d="M241.2 385.79C241.98 381.93 240.7 381.39 240.03 379.46C239.37 377.53 236.32 369.85 236.72 366.78C236.9 365.43 234.02 366.14 233.64 366.95C233.26 367.76 233.7 369.69 234.62 369.91C235.54 370.12 236.24 371.73 236.78 373.34C237.32 374.95 238.63 382.35 238.69 384.07C238.76 385.79 232.99 371.11 232.8 369.46C232.31 365.27 232.38 364.92 231.01 365.03C229.65 365.14 228.74 365.39 229.87 367.91C230.27 368.81 232.45 373.77 233.53 376.99C234.61 380.21 235.77 385.9 235.79 387.29C235.81 388.68 234.14 395.02 235.42 397.91C230.68 394.58 229.93 393.19 221.58 393.83C220.77 390.18 220.56 388.57 220.56 386.75C220.56 384.93 219.74 373.47 219.28 371.22C218.82 368.97 219.53 365.65 218.94 364.9C218.35 364.15 216.86 366.39 216.61 366.28C216.9 365.42 211.43 366.2 213.45 368.02C214.17 368.67 214.99 369.9 215.49 371.19C215.99 372.48 217.75 377.84 217.55 379.99C217.35 382.14 217.59 383.32 217.87 384.82C218.15 386.32 218.11 393.94 217.67 394.26C217.23 394.58 216.47 396.19 216.35 396.51C213.61 395.44 205.48 392.22 204.3 406.49C202.72 407.3 202.13 408.48 201.21 408.34C197.48 404.54 194.56 403.18 192.05 403.18C191.46 403.18 190.89 403.26 190.34 403.39C190.58 398.2 193.09 387.62 193.78 386.52C194.51 385.35 192.97 368.39 193.65 364.67C193.92 363.2 190.32 365.17 190.5 365.52C191.79 367.35 191.98 371.53 192.4 377.19C192.81 382.85 190.13 387.34 188.03 392C187.02 390.83 186.94 380.35 185.56 378.85C184.17 377.35 180.34 366.96 180.86 366.04C181.75 364.47 175.79 365.2 177.97 366.56C179.03 367.22 183.67 378.52 184.06 380.68C184.45 382.84 185.6 387.5 184.27 389.84C182.93 392.17 183.67 395.83 183.41 400.33C181.95 397.83 169.85 394.17 169.39 394.17C168.93 394.17 169.9 386.85 170.68 384.85C171.46 382.85 170 378.69 170.02 375.86C170.04 373.03 170.22 366 169.69 365.88C168.23 365.55 165.75 365.61 166.61 366.27C167.7 367.12 168.86 379.02 168.11 381.35C167.35 383.68 167.74 384.18 166.28 392.84C164.44 391.51 159.22 382.02 158.04 378.52C156.86 375.02 155.63 367.09 155.98 366.68C157.46 364.96 151.54 365.78 153.01 367.05C155.19 368.93 156.77 380.19 156.74 382.85C156.7 385.51 162.34 394.34 162.34 394.34C162.34 394.34 162.52 396.84 161.24 398.33C159.96 399.83 159.09 397.52 155.74 397.69C147.53 398.1 148.28 404.29 144.47 409.37C144.13 409.82 142.94 409.83 141.82 409.88C137.21 402.12 131.96 398.11 126.18 397.98C126.08 397.98 125.98 397.98 125.88 397.98C122.75 397.98 119.73 399.13 116.98 400.83C117.85 397.99 118.52 395.01 119.51 392.3C120.9 388.49 123.72 385.92 124.92 382.18C125.4 380.67 125.12 379.38 125.38 377.83C125.59 376.64 128.27 367.16 127.57 366.29C126.98 365.57 125.63 367.4 124.41 368.16C123.65 368.63 125.67 368.96 125.64 368.85C125.97 369.94 125.43 372.12 125.15 373.33C124.46 376.35 123.26 380.05 121.69 382.6C119.83 385.62 118.75 387.27 116.62 389.83C115.04 391.72 114.42 394.87 113.57 394.61C113.25 394.51 111.91 389.72 112.27 387.12C112.47 385.67 112.36 381.6 112.75 380.16C113.08 378.96 111.24 375.38 110.39 373.88C106.93 367.8 111.17 366.46 105.71 367.37C105.04 367.48 107.69 369.29 108.42 372.51C109.11 375.52 110.44 378.87 110.2 382.39C109.71 389.43 108.7 393.93 107.27 393.72C106.59 392.62 104.26 392.05 102.27 392.02C100.62 392 97.4295 394.37 96.0695 393.67C94.9995 393.12 98.9995 382.96 99.2195 379.84C99.8295 370.99 100.97 367.56 100.45 367.56C95.3595 367.57 99.6095 367.1 98.4995 372.79C97.8995 375.82 97.3595 379.28 96.2895 382.05C94.8895 385.7 93.1495 392.62 92.4095 392.6C91.2895 391.9 91.3895 389.34 90.5595 388.13C88.1695 384.63 88.8995 382.96 90.6895 377.7C93.5295 369.35 98.5595 365.9 92.4795 367.42C92.1995 372.14 92.0795 370.86 90.9295 374.18C89.8695 377.22 87.0495 381.25 86.3995 384.23C86.0695 385.76 88.7095 391.41 88.9395 395.3C89.0595 397.33 87.5895 398.43 87.3095 398.2C85.5395 396.8 83.4095 396.54 81.2095 396.91C77.0095 397.61 74.5795 400.64 71.2495 404.88C70.2595 406.13 69.1695 406.71 68.0595 406.88C63.0395 403.78 56.0395 401.18 51.0095 399.53C52.1595 397.95 53.1795 396.29 53.1695 394.41C53.1595 392.68 51.5595 391.44 51.3895 389.71C51.1295 387.14 52.5695 384.11 53.2395 381.63C53.3595 381.2 56.1195 370.59 56.1195 370.59C55.4695 369.4 53.2995 371.02 51.4995 370.9C49.0595 370.74 46.7095 372.02 45.2095 372.12C45.0495 374.86 43.5095 378.4 43.3995 381.49C43.3495 382.87 43.9095 386.34 43.1895 387.55C42.3395 388.97 41.0195 388.32 39.5195 389.37C41.6395 392.05 45.4895 400.67 44.7695 404.2C44.4795 405.61 43.2795 406.8 44.4395 408.09C45.7595 409.56 47.8295 408.38 48.3895 406.63C48.6795 405.73 47.7495 404.88 48.0595 404.03C48.5795 402.62 49.7295 401.24 50.8095 399.79C55.7195 401.4 62.5695 403.93 67.5395 406.93C66.3395 406.99 65.1495 406.63 64.1195 406.18C64.1595 408.06 63.4295 407.93 62.9295 409.1C62.2995 410.59 61.7695 410.62 62.8495 411.93C63.4895 412.71 64.8295 412.89 65.6495 413.35C66.9595 414.1 68.4795 414.4 69.2795 416.51C70.2495 417.02 70.8795 415.49 71.2395 415.03C73.8195 411.76 76.1895 406.67 79.6795 405.76C82.3295 405.07 83.9095 407.46 85.1595 410.17C86.4395 412.94 86.2395 416.43 88.9395 417.21C90.7995 417.75 93.8295 417.14 95.2595 418.49C97.2595 420.36 97.1195 423.27 100.26 422.26C104.66 420.83 106.09 415.06 109.84 412C111.84 410.37 114.27 407.55 115.51 404.82C115.95 403.86 116.32 402.86 116.66 401.83C119.49 399.99 122.62 398.72 125.87 398.72C125.97 398.72 126.07 398.72 126.16 398.72C131.67 398.85 136.7 402.61 141.14 409.9C140.36 409.96 139.73 410.08 139.63 410.46C139.36 411.46 138.35 412.06 138.71 413.17C139.29 416.33 142.73 415.08 146.34 418.97C147.39 420.1 148.25 418.79 149.11 416.29C149.97 413.79 149.89 414.96 152.27 410.3C154.74 405.45 159.94 407.3 163.67 412.3C167.4 417.29 172.28 417.46 173.77 417.13C175.25 416.8 176.32 421.79 177.73 420.46C179.14 419.13 180.98 418.96 182.53 414.8C188.88 412.8 190.34 408.97 190.33 404.15C190.33 404.06 190.33 403.96 190.33 403.87C193 403.13 196.07 403.9 200.23 407.89C199.65 407.54 199.23 407.26 199 408.09C198.67 409.27 199.24 411.09 200.85 411.63C202.46 412.17 203.71 413.02 204.69 413.67C205.67 414.31 206.68 413.99 207.22 414.42C207.76 414.85 207.89 413.99 207.99 412.27C208.09 410.55 209.18 402.94 212.59 402.94C216 402.94 219.04 410.56 222.34 411.63C225.65 412.7 225.58 418.32 230.38 417.82C235.18 417.32 235.75 414.31 237.51 412.92C239.27 411.53 243.86 408.63 243.09 402.94C242.32 397.27 240.42 389.65 241.2 385.79Z" fill="#512500"/>
<path opacity="0.4" d="M267.239 381.14C267.449 379.78 269.889 370.66 267.999 368.19C266.979 366.86 265.909 369.51 264.199 369.02C261.989 368.39 259.219 371.27 257.529 372.05C258.419 373.62 258.439 375.08 258.129 376.76C257.789 378.6 256.339 380.68 257.019 382.74C258.249 386.46 260.559 390.07 261.849 393.84C262.209 394.89 262.359 395.9 262.869 396.9C263.439 398.02 264.349 398.82 264.409 400.07C264.469 401.33 263.559 402.38 265.039 403.53C266.719 404.84 268.499 403.79 268.629 402.23C268.689 401.42 267.559 400.67 267.659 399.92C267.859 398.51 269.549 398.38 269.409 396.6C269.099 392.67 267.859 388.85 267.189 384.93C266.979 383.66 267.049 382.35 267.239 381.14Z" fill="#512500"/>
<path opacity="0.4" d="M286.909 396.6C286.519 391.65 285.339 387.14 283.859 382.22C283.239 380.16 282.349 372.61 281.509 371.15C280.789 369.9 271.979 370.81 270.769 370.77C270.769 370.77 270.079 373.24 271.709 377.11C273.059 380.3 275.349 383.21 276.959 386.31C278.759 389.75 279.679 393.23 280.979 396.76C281.419 397.96 281.749 398.49 281.869 399.72C281.999 401.05 280.889 402.28 282.519 403.55C284.199 404.86 285.979 403.81 286.109 402.25C286.169 401.44 285.039 400.69 285.139 399.94C285.359 398.51 287.049 398.38 286.909 396.6Z" fill="#512500"/>
<path d="M213.28 366.63C213.92 366.06 214.74 366.16 215.06 365.02C215.38 363.88 216.44 359.15 215.95 357.26C215.46 355.37 215.54 354.33 215.63 353C215.71 351.68 214.66 344.96 214.17 344.67C213.68 344.39 212.71 342.97 212.55 342.68C209.96 343.63 202.25 346.46 199.17 333.88C197.39 333.12 196.66 331.99 195.68 332.27C194.71 332.55 194.14 333.5 193.65 332.46C193.16 331.42 193.49 329.81 195.03 329.34C196.57 328.87 197.71 328.11 198.6 327.54C199.49 326.97 200.55 327.26 201.03 326.88C201.51 326.5 201.76 327.26 202.08 328.77C202.4 330.28 204.51 337 207.92 337C211.33 337 213.35 330.28 216.52 329.34C219.68 328.39 218.87 323.44 223.74 323.88C228.61 324.32 229.58 326.97 231.52 328.2C233.47 329.43 238.44 331.98 238.43 337C238.41 342.01 237.52 348.73 238.82 352.14C240.12 355.55 238.9 356.02 238.5 357.72C238.09 359.42 236.8 365.24 236.8 366.42C236.8 367.61 234.45 368.32 233.96 367.61C233.47 366.9 233.47 366.33 234.37 366.14C235.26 365.95 235.75 364.53 236.07 363.11C236.39 361.69 236.72 355.16 236.56 353.65C236.4 352.14 232.99 363.13 232.75 364.54C232.51 365.95 232.1 366.52 230.72 366.42C229.34 366.33 229.02 364.81 229.91 364.53C230.8 364.25 231.69 362.73 232.34 359.89C232.99 357.05 233.39 352.04 233.23 350.81C233.07 349.58 230.55 344 231.45 341.44C227.15 344.37 226.58 345.6 218.15 345.03C217.83 348.25 217.83 349.67 218.07 351.27C218.31 352.88 218.48 360.07 218.31 362.05C218.15 364.04 219.36 364.79 218.88 365.46C218.39 366.12 217.18 366.31 216.93 366.41C217.34 367.2 211.5 368.24 213.28 366.63Z" fill="#512500"/>
<path d="M193.659 364.72C193.539 361.88 193.199 352.95 192.379 352C191.569 351.05 187.969 341.58 187.619 337.66C187.269 333.74 185.529 330.62 179.039 329C177.179 325.62 175.329 325.48 173.819 324.4C172.309 323.32 171.619 327.38 170.109 327.11C168.599 326.84 163.729 326.97 160.369 331.03C157.009 335.09 151.949 336.6 149.119 332.65C146.399 328.86 146.569 329.81 145.519 327.78C144.479 325.75 143.519 324.68 142.549 325.6C139.229 328.77 135.699 327.75 135.349 330.32C135.069 331.22 136.129 331.71 136.469 332.52C136.819 333.33 140.659 332.71 141.379 333.42C145.569 337.55 145.269 342.59 153.509 342.92C156.869 343.06 157.569 341.18 158.969 342.4C160.359 343.62 160.359 345.65 160.359 345.65C160.359 345.65 155.369 352.82 155.599 354.99C155.829 357.16 155.139 365.14 153.399 365.82C151.659 366.5 152.699 367.85 155.019 367.58C157.339 367.31 156.299 361.36 157.219 358.51C158.139 355.66 162.669 347.95 164.409 346.87C166.499 353.91 166.149 354.31 167.079 356.21C168.009 358.1 168.699 365.41 166.959 365.68C165.219 365.95 167.889 367.17 169.159 366.63C170.439 366.09 169.619 362.98 169.389 360.68C169.159 358.38 170.319 355 169.389 353.37C168.459 351.75 166.949 345.79 167.419 345.79C167.879 345.79 179.709 342.81 180.989 340.78C181.569 344.43 181.109 347.41 182.609 349.31C184.119 351.2 183.309 354.99 183.069 356.75C182.829 358.51 180.399 364.6 178.079 365.41C175.759 366.22 178.779 367.58 180.279 366.76C181.789 365.95 183.409 359.45 184.689 358.23C185.969 357.01 185.269 348.49 186.199 347.54C188.639 351.33 191.649 354.98 191.649 359.58C191.649 364.18 191.769 363.5 190.609 364.99C189.479 366.48 193.709 365.93 193.659 364.72Z" fill="#512500"/>
<path d="M124.429 355.33C125.579 357.31 126.169 360.2 126.359 362.55C126.439 363.5 126.629 365.19 126.109 366.04C126.159 365.96 123.529 368.11 124.409 368.16C125.329 368.21 126.709 368.36 127.609 368.04C128.019 367.89 127.329 359.98 127.319 359.05C127.309 357.85 127.809 356.84 127.569 355.66C126.979 352.74 124.579 350.74 123.829 347.78C123.029 344.64 123.019 341.02 121.899 338.01C121.109 335.88 119.139 333.69 117.409 332.42C114.169 330.04 113.679 325.54 109.519 324.43C106.549 323.64 106.209 325.9 103.899 327.36C102.239 328.41 99.3092 327.94 97.3692 328.36C94.5392 328.97 94.1592 331.69 92.4292 333.84C90.7292 335.96 88.7592 337.81 86.2192 337.28C82.8792 336.57 81.3392 332.6 79.2992 330.06C79.0092 329.7 78.6292 328.51 77.5792 328.91C76.4392 330.55 74.8592 330.78 73.4292 331.37C72.5392 331.73 71.1692 331.87 70.3992 332.48C69.0992 333.5 69.6292 333.52 70.0192 334.68C70.3192 335.59 71.0792 335.49 70.7292 336.96C73.0192 336.24 75.8892 335.79 77.6392 337.98C80.2792 341.28 82.2092 343.64 86.2892 344.18C88.4392 344.47 90.6092 344.26 92.5992 343.18C92.9192 343.01 94.2092 343.86 93.7492 345.44C92.8792 348.47 89.3092 352.87 89.3892 354.06C89.5492 356.38 91.7092 359.52 92.2692 361.89C92.8792 364.48 92.9792 362.94 92.4792 366.61C98.3192 363.75 94.0892 365.65 92.6092 359.15C91.6792 355.05 91.2292 353.75 94.1992 351.02C95.2292 350.08 95.5392 348.08 96.7792 347.54C97.5292 347.53 98.1192 352.91 98.9192 355.76C99.5292 357.92 99.4992 360.61 99.5992 362.97C99.7792 367.4 95.3092 368.4 99.9192 367.88C101.379 367.71 100.649 364.38 101.489 357.49C101.789 355.06 99.4492 347.15 100.609 346.72C102.089 346.17 104.879 348.02 106.539 348C108.539 347.98 110.959 347.53 111.819 346.68C113.289 346.51 113.559 350.02 112.889 355.5C112.559 358.24 110.669 360.85 109.489 363.19C108.229 365.69 105.059 367.3 105.709 367.39C111.019 368.1 107.229 366.86 111.689 362.12C112.789 360.96 115.209 358.16 115.079 357.23C114.919 356.11 115.699 352.94 115.739 351.81C115.809 349.78 117.929 346.05 118.269 345.98C119.159 345.78 119.269 348.23 120.529 349.71C122.259 351.7 123.079 352.98 124.429 355.33Z" fill="#512500"/>
<path d="M263.819 372.28C261.739 373.07 259.379 373.03 257.539 372.06C258.109 370.1 258.009 370.23 257.359 368.13C256.649 365.84 254.769 363.24 255.039 360.68C255.519 356.04 257.089 351.55 257.619 346.84C257.769 345.53 257.709 344.27 258.019 343.02C258.359 341.63 259.109 340.62 258.919 339.07C258.729 337.5 257.599 336.19 258.849 334.75C260.269 333.12 262.259 334.43 262.699 336.37C262.929 337.37 261.939 338.31 262.199 339.25C262.679 341.01 264.399 341.17 264.619 343.39C265.109 348.29 264.639 353.05 264.759 357.94C264.799 359.53 265.149 361.16 265.579 362.67C266.069 364.37 268.879 367.09 267.759 369.02C266.859 370.58 265.429 371.67 263.819 372.28Z" fill="#512500"/>
<path d="M51.9692 372.56C49.5192 372.74 46.7092 372.24 45.2192 372.13C45.2392 369.09 43.9092 366.14 44.0092 362.72C44.0592 361.19 44.8492 357.34 44.1992 356C43.4392 354.43 42.0792 355.15 40.6592 353.98C42.9592 351 47.3892 341.44 46.8992 337.52C46.7092 335.95 45.5792 334.64 46.8292 333.2C48.2492 331.57 50.2392 332.88 50.6792 334.82C50.9092 335.82 49.9192 336.76 50.1792 337.71C51.0992 341.06 54.8992 344.26 54.6392 348.38C54.5192 350.3 52.8292 351.68 52.5392 353.6C52.1092 356.46 53.3492 359.81 53.8492 362.56C53.9392 363.04 55.8092 371.18 56.1292 370.6C55.3892 371.92 53.7792 372.43 51.9692 372.56Z" fill="#512500"/>
<path d="M281.099 371.99C280.229 373.2 276.719 372.86 275.529 372.9C271.939 373.03 270.029 372.52 270.879 367.7C271.579 363.72 273.279 360.09 274.269 356.24C275.369 351.95 275.589 347.61 276.169 343.21C276.369 341.71 276.589 341.05 276.459 339.53C276.319 337.87 274.959 336.34 276.339 334.76C277.759 333.13 279.749 334.44 280.189 336.38C280.419 337.38 279.429 338.32 279.689 339.26C280.169 341.02 281.889 341.18 282.109 343.4C282.729 349.58 282.459 355.19 281.979 361.32C281.779 363.91 282.589 369.9 281.099 371.99Z" fill="#512500"/>
<path d="M232.16 342.61C232.09 342.8 232.049 343.03 232.029 343.27C231.989 342.67 232.02 342.13 232.16 341.72L232.509 340.71L232.919 340.43L232.16 342.61ZM215.799 366.12C216.019 365.34 216.939 361.47 216.829 359.01C216.739 361.42 215.989 364.53 215.799 365.23C215.579 365.99 215.179 366.38 214.779 366.63C215.109 366.57 215.419 366.5 215.679 366.42C215.719 366.32 215.759 366.23 215.799 366.12ZM45.1895 358.08C45.1595 358.93 45.0595 359.91 44.9295 361C44.8495 361.68 44.7695 362.33 44.7595 362.74C44.7495 362.96 44.7695 363.17 44.7695 363.38C44.7995 362.98 44.8595 362.45 44.9295 361.88C45.1095 360.4 45.2395 359.1 45.1895 358.08ZM94.4895 346.54C94.6295 346.04 94.6395 345.61 94.5795 345.25C94.5595 345.38 94.5295 345.51 94.4895 345.65C94.0095 347.34 92.7995 349.32 91.7295 351.07C91.0695 352.15 90.1695 353.62 90.1595 354.01C90.1695 354.2 90.2095 354.4 90.2495 354.6C90.4895 354 91.1895 352.85 91.7295 351.96C92.7995 350.21 94.0095 348.23 94.4895 346.54ZM53.0995 362.7C52.9695 361.97 52.7795 361.19 52.5795 360.36C52.1895 358.76 51.7695 357 51.6995 355.3C51.6195 357.27 52.1195 359.37 52.5795 361.25C52.7795 362.08 52.9695 362.86 53.0995 363.59C53.1495 363.86 53.6095 365.89 54.1095 367.85C54.4595 369.25 54.7295 370.2 54.9395 370.85C55.0295 370.78 55.1095 370.7 55.1795 370.62C54.9195 370.01 54.5995 368.91 54.1095 366.96C53.6095 365 53.1495 362.97 53.0995 362.7ZM47.6595 338.65C47.4095 343.04 43.8495 350.6 41.7295 353.77C41.8795 353.84 42.0395 353.89 42.1895 353.93C44.4995 350.18 47.9095 342.54 47.6595 338.65ZM47.3995 334.6C47.6795 334.28 47.9695 334.12 48.2795 334.12C48.9095 334.12 49.5695 334.77 49.8595 335.62C49.9395 335.39 49.9795 335.18 49.9395 335C49.7195 334.02 48.9695 333.23 48.2795 333.23C47.9695 333.23 47.6695 333.39 47.3995 333.71C46.9895 334.18 46.9395 334.59 47.0695 335.17C47.1195 334.98 47.2295 334.79 47.3995 334.6ZM271.619 368.73C272.019 366.45 272.78 364.23 273.51 362.08C274.04 360.54 274.579 358.95 274.999 357.33C275.799 354.22 276.15 351.04 276.48 347.97C276.62 346.72 276.75 345.47 276.92 344.22C276.97 343.86 277.019 343.55 277.059 343.26C277.189 342.45 277.289 341.79 277.239 340.81C277.209 341.36 277.139 341.83 277.059 342.37C277.009 342.66 276.97 342.97 276.92 343.33C276.75 344.59 276.62 345.84 276.48 347.08C276.14 350.15 275.799 353.33 274.999 356.44C274.579 358.06 274.04 359.65 273.51 361.19C272.78 363.34 272.019 365.56 271.619 367.84C271.459 368.77 271.4 369.53 271.45 370.13C271.47 369.71 271.529 369.25 271.619 368.73ZM91.2995 357.47C91.3995 357.7 91.5095 357.93 91.6195 358.16C91.3995 357.19 91.2395 356.36 91.1895 355.61C91.1395 356.18 91.1895 356.79 91.2995 357.47ZM261.45 339.35C261.39 339.67 261.369 340 261.469 340.36C261.739 341.33 262.3 341.91 262.79 342.41C263.34 342.97 263.769 343.41 263.869 344.38C264.019 345.84 264.069 347.3 264.089 348.75C264.089 347 264.049 345.24 263.869 343.49C263.769 342.52 263.34 342.08 262.79 341.52C262.29 341.01 261.729 340.44 261.469 339.47C261.449 339.42 261.45 339.39 261.45 339.35ZM276.91 336.15C277.19 335.83 277.48 335.67 277.79 335.67C278.42 335.67 279.079 336.32 279.369 337.17C279.449 336.94 279.49 336.73 279.45 336.55C279.23 335.57 278.48 334.78 277.79 334.78C277.48 334.78 277.19 334.94 276.91 335.26C276.48 335.76 276.42 336.21 276.54 336.81C276.61 336.59 276.72 336.37 276.91 336.15ZM278.939 339.35C278.879 339.67 278.859 340 278.959 340.36C279.229 341.33 279.789 341.91 280.279 342.41C280.829 342.97 281.26 343.41 281.35 344.38C281.57 346.56 281.68 348.65 281.7 350.77C281.7 348.35 281.6 345.97 281.35 343.49C281.25 342.52 280.819 342.08 280.279 341.52C279.779 341.01 279.219 340.44 278.959 339.47C278.949 339.42 278.949 339.39 278.939 339.35ZM234.02 352.1C233.97 354.24 233.579 357.88 233.079 360.08C232.379 363.12 231.389 364.87 230.169 365.23C230.159 365.25 230.17 365.34 230.24 365.43C230.3 365.52 230.449 365.66 230.779 365.68C230.829 365.68 230.879 365.68 230.929 365.69C231.359 365.33 231.74 364.78 232.1 364.03C232.31 363.16 232.809 361.46 233.329 359.8C233.769 357.21 234.07 353.68 234.02 352.1ZM194.339 331.75C194.509 331.37 194.819 331.11 195.259 330.97C196.809 330.49 197.94 329.77 198.85 329.19L199.009 329.09C199.349 328.88 199.749 328.83 200.169 328.79C200.459 328.76 200.769 328.73 201.049 328.63C201.129 328.89 201.23 329.3 201.35 329.84C201.37 329.93 203.449 338.67 207.929 338.67C210.149 338.67 211.729 336.52 213.249 334.45C214.369 332.92 215.53 331.34 216.74 330.98C218.35 330.5 219.099 329.19 219.759 328.04C220.569 326.64 221.209 325.53 223.139 325.53C223.309 325.53 223.48 325.54 223.66 325.56C226.88 325.85 228.19 327.13 229.46 328.37C229.99 328.89 230.489 329.38 231.109 329.77C231.279 329.88 231.479 330 231.689 330.13C233.739 331.38 237.499 333.68 237.649 337.67C237.649 337.46 237.66 337.24 237.66 337.04C237.67 332.89 233.779 330.52 231.689 329.24C231.479 329.11 231.279 328.99 231.109 328.88C230.489 328.49 229.99 328 229.46 327.48C228.19 326.24 226.89 324.97 223.66 324.67C223.48 324.65 223.299 324.64 223.139 324.64C221.199 324.64 220.559 325.75 219.759 327.15C219.099 328.3 218.34 329.61 216.74 330.09C215.53 330.45 214.369 332.03 213.249 333.56C211.729 335.64 210.149 337.78 207.929 337.78C203.439 337.78 201.37 329.04 201.35 328.95C201.23 328.41 201.129 328 201.049 327.74C200.769 327.84 200.469 327.87 200.169 327.9C199.749 327.94 199.349 327.99 199.009 328.2L198.85 328.3C197.94 328.88 196.799 329.61 195.259 330.08C194.819 330.21 194.509 330.48 194.339 330.86C194.189 331.19 194.169 331.6 194.279 331.95C194.299 331.88 194.319 331.81 194.339 331.75ZM257.07 354.73C257.58 352.49 258.099 350.17 258.369 347.81C258.419 347.33 258.45 346.87 258.48 346.4C258.53 345.59 258.569 344.83 258.749 344.09C258.849 343.68 258.99 343.3 259.14 342.91C259.46 342.06 259.779 341.18 259.679 340.02C259.609 340.76 259.38 341.4 259.14 342.02C258.99 342.42 258.849 342.79 258.749 343.2C258.569 343.94 258.52 344.7 258.48 345.51C258.45 345.97 258.419 346.44 258.369 346.92C258.099 349.28 257.58 351.6 257.07 353.84C256.56 356.1 256.029 358.44 255.789 360.75C255.759 361.03 255.769 361.31 255.799 361.59C256.039 359.31 256.56 356.98 257.07 354.73ZM259.42 336.15C259.7 335.83 259.989 335.67 260.299 335.67C260.929 335.67 261.59 336.32 261.88 337.17C261.96 336.94 261.999 336.73 261.959 336.55C261.739 335.57 260.989 334.78 260.299 334.78C259.989 334.78 259.69 334.94 259.42 335.26C259.01 335.73 258.959 336.14 259.089 336.72C259.139 336.53 259.25 336.34 259.42 336.15ZM49.4295 337.79C49.3695 338.11 49.3495 338.45 49.4495 338.8C49.8395 340.22 50.6595 341.53 51.5195 342.92C52.5995 344.66 53.7095 346.44 53.8695 348.39C53.8695 348.37 53.8795 348.35 53.8795 348.33C54.0195 346.06 52.7495 344.01 51.5195 342.03C50.6595 340.64 49.8395 339.32 49.4495 337.91C49.4295 337.87 49.4295 337.83 49.4295 337.79ZM156.399 356.36C156.339 359.46 155.709 365.72 153.689 366.51C153.569 366.56 153.479 366.6 153.419 366.64C153.589 366.73 153.9 366.83 154.41 366.84C155.22 365.85 155.729 363.84 156.039 361.78C156.089 360.83 156.169 359.89 156.329 359.07C156.389 357.97 156.419 357.01 156.399 356.36ZM178.38 366.11C178.6 366.18 178.889 366.24 179.199 366.24C179.349 366.24 179.5 366.23 179.63 366.2C180.08 365.79 180.509 365.26 180.919 364.66C181.349 363.78 181.799 362.66 182.139 361.79C182.279 361.44 182.419 361.09 182.549 360.76C181.529 363.06 180.02 365.53 178.38 366.11ZM168.809 361.92C168.829 363.36 168.68 364.7 168.27 365.49C168.17 365.68 168.059 365.83 167.949 365.96C168.099 365.98 168.25 366 168.41 366C168.42 366 168.429 366 168.439 366C168.729 365.2 168.84 364.05 168.82 362.82C168.84 362.95 168.86 363.08 168.88 363.21C168.96 363.76 169.08 364.61 169.13 365.35C169.2 364.55 169 363.12 168.88 362.32C168.85 362.18 168.829 362.05 168.809 361.92ZM156.369 354.9C156.379 355.02 156.389 355.2 156.399 355.4C156.689 353.73 159.159 349.61 160.999 346.97L161.139 346.77V346.53C161.139 346.5 161.139 346.28 161.089 345.95L160.999 346.08C158.989 348.96 156.229 353.6 156.369 354.9ZM217.559 362.88C217.559 362.89 217.559 362.9 217.559 362.91C217.469 363.97 217.719 364.73 217.949 365.29C218.059 365.23 218.159 365.16 218.229 365.09C218.199 364.99 218.13 364.82 218.07 364.69C217.88 364.27 217.629 363.68 217.559 362.88ZM191.809 352.49C190.839 351.36 187.24 341.79 186.88 337.72C186.6 334.54 185.429 331.37 178.869 329.73L178.549 329.65L178.389 329.36C177.119 327.05 175.9 326.41 174.71 325.79C174.27 325.56 173.819 325.32 173.389 325.01C173.359 324.99 173.339 324.98 173.329 324.97C173.119 325.06 172.719 325.68 172.499 326.03C171.939 326.89 171.309 327.87 170.259 327.87C170.169 327.87 170.079 327.86 169.979 327.84C169.829 327.81 169.49 327.77 168.96 327.77C167.81 327.77 163.819 328.04 160.949 331.51C158.769 334.14 155.939 335.71 153.389 335.71C151.419 335.71 149.719 334.8 148.499 333.09C147.229 331.32 146.599 330.6 146.189 330.13C145.659 329.52 145.42 329.23 144.85 328.13C143.78 326.05 143.29 326.03 143.27 326.03C143.25 326.03 143.179 326.06 143.079 326.15C141.379 327.77 139.659 328.36 138.279 328.83C136.729 329.36 136.219 329.6 136.109 330.42L136.1 330.48L136.079 330.54C136.049 330.63 136.089 330.73 136.219 330.91C136.449 330.4 137.019 330.16 138.279 329.73C139.659 329.26 141.379 328.67 143.079 327.05C143.179 326.95 143.25 326.93 143.27 326.93C143.29 326.93 143.78 326.95 144.85 329.03C145.42 330.13 145.659 330.43 146.189 331.03C146.609 331.5 147.229 332.22 148.499 333.99C149.729 335.7 151.419 336.61 153.389 336.61C155.939 336.61 158.769 335.04 160.949 332.41C163.819 328.94 167.81 328.67 168.96 328.67C169.48 328.67 169.819 328.72 169.979 328.74C170.069 328.76 170.169 328.77 170.259 328.77C171.299 328.77 171.939 327.79 172.499 326.93C172.719 326.59 173.129 325.96 173.329 325.87C173.329 325.88 173.359 325.89 173.389 325.91C173.819 326.22 174.27 326.46 174.71 326.69C175.89 327.31 177.119 327.95 178.389 330.26L178.549 330.55L178.869 330.63C185.429 332.27 186.6 335.44 186.88 338.62C187.24 342.69 190.849 352.26 191.809 353.39C192.029 353.75 192.479 355.74 192.869 364.7C192.879 364.69 192.9 364.68 192.91 364.68L192.899 364.54C192.499 354.95 192.029 352.86 191.809 352.49ZM264.85 362.89C264.32 361.04 264.039 359.43 263.999 357.97C263.979 357.25 263.979 356.53 263.989 355.81C263.979 356.82 263.979 357.84 263.999 358.86C264.039 360.31 264.31 361.92 264.85 363.78C265.04 364.44 265.479 365.15 265.939 365.91C266.449 366.74 266.999 367.64 267.179 368.41C267.459 367.5 266.659 366.19 265.939 365.01C265.479 364.27 265.04 363.55 264.85 362.89ZM237.369 346.72C237.339 349.28 237.479 351.64 238.119 353.31C238.409 354.07 238.559 354.65 238.609 355.12C238.699 354.51 238.619 353.73 238.119 352.42C237.549 350.95 237.379 348.93 237.369 346.72ZM234.52 366.9C234.48 366.91 234.449 366.92 234.429 366.92C234.449 366.97 234.489 367.04 234.549 367.14C234.579 367.15 234.629 367.15 234.699 367.15C235.159 367.15 235.68 366.9 235.91 366.67C235.95 366.6 235.989 366.52 236.039 366.44C236.039 366.2 236.079 365.82 236.149 365.35C235.789 366.12 235.27 366.74 234.52 366.9ZM183.96 357.03C184.12 355.98 184.329 354.55 184.279 353.15C184.239 354.24 184.08 355.31 183.96 356.14C183.92 356.39 183.889 356.63 183.859 356.83C183.789 357.39 183.449 358.54 182.939 359.84C183.219 359.21 183.489 358.67 183.759 358.25C183.809 358.04 183.849 357.86 183.859 357.72C183.879 357.52 183.92 357.29 183.96 357.03ZM114.009 351.1C113.989 352.27 113.89 353.74 113.66 355.59C113.41 357.65 112.349 359.62 111.359 361.38C111.789 360.92 112.179 360.47 112.529 360.05C113.069 358.91 113.51 357.71 113.66 356.49C113.95 354.12 114.039 352.39 114.009 351.1ZM107.739 366.81C108.129 366.81 108.229 366.76 108.229 366.76C108.279 366.7 108.359 366.43 108.419 366.2C108.459 366.05 108.509 365.88 108.569 365.69C108.149 366.11 107.729 366.48 107.349 366.8C107.499 366.81 107.629 366.81 107.739 366.81ZM99.5495 348.27C99.4695 349.3 99.7295 350.92 100.149 353.31C100.399 354.72 100.669 356.27 100.739 357.36C100.839 356.4 100.469 354.29 100.149 352.42C99.8395 350.63 99.6095 349.27 99.5495 348.27ZM93.2595 362.84C93.3395 363.24 93.3795 363.6 93.4095 363.95C93.6695 364.34 93.9195 364.66 94.1395 364.93C94.3495 364.81 94.5195 364.71 94.6395 364.63C94.5695 364.54 94.4795 364.44 94.3995 364.34C94.0695 363.97 93.6695 363.5 93.2595 362.84ZM99.6495 367.15C99.8295 366.78 99.9995 366.36 100.129 365.89C100.159 365.53 100.189 365.13 100.209 364.72C99.9595 365.81 99.4795 366.63 99.0895 367.21C99.2595 367.19 99.4495 367.17 99.6495 367.15ZM168.759 354.62C168.909 354.88 168.979 355.24 169.009 355.65C169.049 354.86 169.009 354.17 168.759 353.73C168.199 352.74 166.87 348.67 166.66 346.56C166.38 348.06 168.099 353.46 168.759 354.62ZM192.449 361.77C192.439 363.79 192.339 364.11 191.559 365.07C191.539 365.09 191.529 365.11 191.509 365.13C191.749 365.12 191.979 365.06 192.189 365C192.449 364.4 192.449 363.64 192.449 361.77ZM125.059 352.03C124.289 350.8 123.499 349.52 123.099 347.97C122.749 346.62 122.549 345.17 122.359 343.78C122.099 341.9 121.819 339.96 121.199 338.28C120.439 336.25 118.529 334.18 116.969 333.03C115.519 331.96 114.609 330.55 113.729 329.19C112.529 327.34 111.499 325.74 109.339 325.16C108.999 325.07 108.689 325.02 108.419 325.02C107.559 325.02 107.089 325.46 106.279 326.31C105.759 326.85 105.169 327.46 104.329 327.99C103.109 328.76 101.469 328.82 99.8795 328.88C99.0195 328.91 98.2095 328.94 97.5495 329.09C95.9495 329.44 95.2895 330.6 94.4595 332.08C94.0495 332.82 93.6195 333.58 93.0395 334.31C91.5295 336.2 89.6395 338.12 87.1195 338.12C86.7795 338.12 86.4295 338.08 86.0795 338.01C83.3195 337.42 81.6895 334.92 80.2495 332.71C79.7295 331.92 79.2495 331.17 78.7295 330.52C78.6495 330.43 78.5695 330.29 78.4795 330.13C78.3695 329.95 78.1795 329.62 78.0395 329.57C77.0195 330.88 75.7395 331.33 74.5995 331.73C74.3095 331.83 74.0195 331.93 73.7395 332.05C73.3695 332.2 72.9495 332.31 72.5495 332.42C71.9195 332.59 71.2595 332.76 70.8895 333.05C70.5695 333.3 70.4395 333.44 70.3795 333.51C70.3995 333.57 70.4395 333.64 70.4695 333.7C70.5295 333.82 70.5895 333.97 70.6595 334.13C70.7295 334.07 70.7995 334.01 70.8995 333.93C71.2695 333.64 71.9295 333.46 72.5595 333.3C72.9695 333.19 73.3795 333.08 73.7495 332.93C74.0295 332.81 74.3195 332.71 74.6095 332.61C75.7495 332.21 77.0295 331.76 78.0495 330.45C78.1895 330.5 78.3795 330.83 78.4895 331.01C78.5795 331.17 78.6595 331.3 78.7395 331.4C79.2595 332.05 79.7495 332.8 80.2595 333.59C81.6995 335.8 83.3295 338.3 86.0895 338.89C86.4395 338.96 86.7795 339 87.1295 339C89.6495 339 91.5395 337.07 93.0495 335.19C93.6395 334.46 94.0595 333.7 94.4695 332.96C95.2995 331.48 95.9495 330.31 97.5595 329.97C98.2195 329.83 99.0295 329.8 99.8895 329.76C101.479 329.7 103.129 329.64 104.339 328.87C105.179 328.34 105.769 327.73 106.289 327.19C107.109 326.34 107.579 325.9 108.429 325.9C108.699 325.9 109.009 325.95 109.349 326.04C111.509 326.62 112.549 328.22 113.739 330.07C114.619 331.43 115.529 332.85 116.979 333.91C118.539 335.06 120.449 337.12 121.209 339.16C121.839 340.83 122.109 342.78 122.369 344.66C122.569 346.05 122.769 347.5 123.109 348.85C123.509 350.4 124.299 351.68 125.069 352.91C125.839 354.15 126.569 355.33 126.849 356.69C126.859 356.72 126.859 356.76 126.859 356.79C126.899 356.45 126.909 356.13 126.849 355.8C126.569 354.45 125.839 353.27 125.059 352.03Z" fill="#7F3905"/>
<path d="M46.2792 353.64L46.1592 353.23C46.3892 353.14 69.2692 344.41 74.4292 333.88L74.7492 334.09C69.5292 344.77 46.5092 353.55 46.2792 353.64Z" fill="#512500"/>
<path d="M127.889 338.69C119.459 338.69 112.249 329.05 112.179 328.95L112.459 328.67C112.529 328.77 119.629 338.26 127.889 338.26C127.959 338.26 128.029 338.26 128.099 338.26C132.209 338.18 135.929 335.76 139.179 331.05L139.469 331.32C136.149 336.13 132.329 338.61 128.109 338.69C128.029 338.69 127.959 338.69 127.889 338.69Z" fill="#512500"/>
<path d="M187.369 336.82C184.379 336.82 181.729 335.12 178.999 333.37L178.239 332.89L178.419 332.51L179.179 332.99C184.959 336.7 189.949 339.9 198.539 328.46L198.819 328.74C194.249 334.82 190.609 336.82 187.369 336.82Z" fill="#512500"/>
<path d="M327.1 284.88C327.1 284.88 314.52 281.84 303.18 289.17L304.01 290.97L300.41 289.59C300.41 289.59 293.77 294.98 292.67 298.58L294.19 300.65H291.15L288.8 305.21L292.4 307.7L287.84 308.94C287.84 308.94 285.63 315.16 285.77 317.79L288.12 318.76L285.76 320.7C285.76 320.7 282.45 337.85 290.61 349.46L294.34 334.11L293.51 332.31L294.75 331.9L300.28 320.15L298.34 318.63L301.24 318.08L302.76 315.87C302.76 315.87 300.96 313.38 299.58 313.52C298.2 313.66 304.56 313.11 304.56 313.11L310.64 305.09L307.74 302.32L312.86 302.6L318.39 295.96L316.87 293.61L319.64 293.47C319.63 293.45 322.81 291.93 327.1 284.88Z" fill="#100B41"/>
<path d="M327.1 284.88C327.1 284.88 280.22 282.25 264.46 296.5C264.46 296.5 265.29 292.16 267.78 290.6H269.44L268.47 288.07L269.02 287.24L271.65 287.93L270.27 285.44L271.93 284.26C271.93 284.26 279.81 283.23 280.37 282.67C280.92 282.12 274.01 281.98 274.01 281.98C274.01 281.98 278.99 276.86 288.81 275.07L295.79 278.25L291.16 275.07C291.16 275.07 296.88 273.76 304.71 275.07C305.54 275.21 308.17 277.56 308.17 277.56L308.31 275.76C308.3 275.75 316.87 275.2 327.1 284.88Z" fill="#100B41"/>
<path d="M327.1 284.88C327.1 284.88 316.18 278.59 312.23 277.17L313.58 273.64L310.68 276.86L304.56 274.48V271.46L302.9 273.43L297.61 272.5C297.61 272.5 298.23 268.77 297.61 268.87C296.99 268.97 295.78 272.19 295.78 272.19L286 270.53L285.09 267.94V270.33C285.09 270.33 268.68 267.01 264.02 263.8C259.35 260.58 287.04 251.77 301.56 255.5L300.21 257.89L303.84 256.23C303.84 256.23 310.06 257.68 312.66 259.86C312.66 259.86 308.93 261.42 309.86 263.39C309.86 263.39 315.56 261 317.85 261.63C320.12 262.23 330.97 270.18 327.1 284.88Z" fill="#100B41"/>
<path d="M327.1 284.88C327.1 284.88 321.15 267.32 316.73 260.4L318.25 258.88H314.79L312.44 252.66L314.79 251.97H310.23L306.77 246.44L308.84 243.81L304.97 245.33L301.37 241.6L302.89 238.83L299.99 240.21L291.69 230.12C291.69 230.12 303.44 227.91 313.82 234.41L313.68 238.7L315.34 235.8C315.34 235.8 324.19 243.41 327.09 249.08L326.68 254.6L329.72 251.7C329.73 251.69 335.93 276.24 327.1 284.88Z" fill="#100B41"/>
<path d="M327.101 284.88C324.351 286.04 321.291 291.59 321.361 295.32C321.501 302.81 322.391 302.51 324.211 302.17C326.101 301.82 331.841 301.13 331.841 301.13L327.921 305.28L331.841 310.26L335.261 309.22L333.391 312.33L337.951 316.86H341.891L340.441 320.84L354.751 336.6L356.201 330.17L353.301 329.13L356.201 328.51V322.49C356.201 322.49 352.261 321.25 350.601 321.87C348.941 322.49 353.711 320 357.241 320.42V316.86C357.241 316.86 354.751 315.37 352.881 316.86C352.881 316.86 353.711 314.41 357.241 313.99V304.86L348.741 301.75L356.001 301.54C356.001 301.54 355.171 299.47 353.721 295.52L345.011 294.69L351.231 293.86C351.231 293.87 344.181 277.69 327.101 284.88Z" fill="#100B41"/>
<path d="M327.101 284.88C327.101 284.88 369.481 272.71 399.971 277.9C399.971 277.9 400.281 275.93 395.721 273.54L393.131 274.06L394.271 272.82C394.271 272.82 391.051 270.54 390.021 270.54C388.981 270.54 388.571 271.47 388.571 271.47L388.471 269.74L385.981 268.05L382.141 269.74C382.141 269.74 382.351 267.32 384.011 267.01L379.761 265.77C379.761 265.77 377.691 266.18 376.961 267.43C376.231 268.67 377.581 265.77 377.581 265.77C377.581 265.77 372.811 263.9 371.981 264.11C371.151 264.32 369.391 269.74 369.391 269.74H367.941L369.181 264.09L362.341 264.52L361.511 268.05L360.891 264.09C360.891 264.09 356.021 265.56 354.561 265.87C353.111 266.18 351.141 271.26 351.141 271.26L351.241 266.49L346.781 269.08L345.221 274.48L344.181 269.73L341.901 271.46L342.111 274.48L339.931 272.61C339.931 272.6 330.771 275.27 327.101 284.88Z" fill="#100B41"/>
<path d="M327.1 284.88L339.3 274.48V270.77L341.2 272.29L344.24 268L343.55 264.08H345.62L349.22 261.09V257.91L351.43 258.88L357.93 252.1V248.23L359.31 251.41C359.31 251.41 369.4 242.97 371.2 235.92C371.2 235.92 346.59 236.06 336.49 250.99H340.36L336.07 252.37L331.82 258.45L334.27 260.39H329.43C329.45 260.4 322.54 272.29 327.1 284.88Z" fill="#100B41"/>
<path d="M317.101 285.02L325.921 280.87C325.921 280.87 345.931 318.83 351.321 340.5L352.771 341.43L354.231 348.07H355.151L355.981 354.29H356.811L357.851 360.72H358.681L359.511 368.5H360.241L361.071 374.1H362.211V380.94L364.081 382.18V388.82L365.121 389.44V394.63H365.641V402.41H367.301L366.471 408.43H367.301L366.681 417.35H367.821L366.681 422.43L367.821 423.26L367.091 446.8H358.381C358.381 446.8 355.991 416.41 350.601 408.63C350.601 408.63 352.901 409.15 354.241 411.53L349.871 398.88C349.871 398.88 353.501 400.85 355.891 404.69L354.241 397.43L355.061 396.81C355.061 396.81 350.631 388.1 352.571 388.1C353.191 388.1 353.811 388.2 353.811 388.2L352.671 383.74L353.711 383.33L350.491 375.76L351.941 375.35C351.941 375.35 349.451 369.75 349.241 367.47L348.201 363.84L348.931 363.11L346.541 356.58L347.061 355.75C347.061 355.75 343.531 349.11 343.331 347.56L343.851 347.04L342.451 343.62L343.121 343.31L340.531 336.26L341.151 335.74L336.381 327.96L337.111 327.65L335.551 324.95L336.591 324.33L332.031 316.45V315.48L329.541 310.23L330.161 309.09L327.151 302.04C327.161 302.02 322.671 291.82 317.101 285.02Z" fill="#100B41"/>
<path d="M68.4102 286.72C68.4102 286.72 73.9102 281.54 81.7802 281.98L81.8801 283.13L83.3002 281.39C83.3002 281.39 88.2302 282.21 89.8302 283.71L89.6602 285.2L91.2001 284.32L93.7102 285.96L92.6102 288.26L95.2802 287.57C95.2802 287.57 98.2002 290.09 98.8902 291.46L97.9802 292.63L99.7402 292.93C99.7402 292.93 106.38 300.67 105.59 308.92L99.2602 302.21L99.1602 301.06L98.4102 301.21L92.2102 296.85L92.7502 295.52L91.1202 296.08L89.7102 295.4C89.7102 295.4 89.9002 293.62 90.6402 293.29C91.3802 292.96 87.9902 294.52 87.9902 294.52L82.5901 292.21L83.2602 289.97L80.7402 291.59L76.0201 289.82L76.1102 288.19L74.6702 288.92C74.6802 288.92 72.6202 289.06 68.4102 286.72Z" fill="#100B41"/>
<path d="M68.4102 286.72C68.4102 286.72 91.4302 271.84 103.54 274.51C103.54 274.51 101.87 272.55 100.15 272.47L99.3102 272.95L99.0702 271.39L98.5502 271.13L97.4202 272.24L97.4002 270.58L96.2202 270.46C96.2202 270.46 91.9202 272.21 91.4802 272.09C91.0402 271.97 94.5102 269.9 94.5102 269.9C94.5102 269.9 90.5102 268.74 85.0102 270.67L82.3902 274.3L83.8202 271.35C83.8202 271.35 80.5401 272.34 76.9501 275.27C76.5701 275.58 75.9202 277.53 75.9202 277.53L75.3302 276.66C75.3102 276.66 70.8002 278.86 68.4102 286.72Z" fill="#100B41"/>
<path d="M68.4095 286.72C68.4095 286.72 72.1295 280.37 73.7195 278.51L72.0195 277.11L74.4195 277.9L76.8395 274.93L75.9695 273.4L77.3795 273.92L79.7895 271.92C79.7895 271.92 78.3995 270.21 78.7395 270.08C79.0895 269.95 80.6295 271.23 80.6295 271.23L85.1095 267.56L84.8195 265.98L85.5095 267.19C85.5095 267.19 92.8695 260.77 94.3095 257.79C95.7495 254.81 79.1495 258.34 72.8695 264.43L74.2395 265.25L71.9195 265.46C71.9195 265.46 69.1795 267.99 68.4995 269.85C68.4995 269.85 70.8395 269.56 70.9395 270.83C70.9395 270.83 67.3595 271.27 66.3795 272.24C65.4095 273.22 62.1995 280.39 68.4095 286.72Z" fill="#100B41"/>
<path d="M68.4097 286.72C68.4097 286.72 66.3497 276.09 66.5997 271.31L65.3897 270.98L67.1397 269.98L66.5297 266.14L65.1397 266.47L67.4497 265.15L67.6097 261.35L65.7997 260.62L68.1997 260.27L68.9397 257.34L67.3697 256.38L69.2397 256.24L70.5297 248.72C70.5297 248.72 63.9297 250.99 60.5397 257.29L61.8497 259.42L60.1697 258.43C60.1697 258.43 57.8797 264.85 58.0397 268.56L59.8497 271.24L57.4697 270.65C57.4897 270.65 61.4397 284.89 68.4097 286.72Z" fill="#100B41"/>
<path d="M68.4102 286.72C70.1402 286.51 73.3002 288.44 74.3402 290.36C76.4302 294.2 75.9002 294.3 74.8702 294.66C73.8102 295.03 70.7002 296.34 70.7002 296.34L73.8902 297.31L73.3402 300.97L71.3102 301.43L73.1602 302.47L72.1502 306.09L70.1502 307.23L72.0402 308.83L69.3302 320.96L66.7402 318.12L67.9102 316.75L66.2602 317.27L64.5202 314.22C64.5202 314.22 66.1602 312.45 67.1802 312.29C68.2002 312.13 65.0602 312.24 63.3902 313.47L62.3602 311.66C62.3602 311.66 63.1902 310.19 64.5702 310.4C64.5702 310.4 63.4402 309.4 61.5302 310.2L58.8902 305.57L62.3102 301.53L58.5702 303.52C58.5702 303.52 58.3902 302.23 57.9902 299.81L62.1702 296.87L58.7702 298.25C58.7702 298.26 57.6702 288.01 68.4102 286.72Z" fill="#100B41"/>
<path d="M68.4098 286.72C68.4098 286.72 43.3898 292.79 29.4198 304.24C29.4198 304.24 28.6898 303.33 30.3198 300.8L31.7898 300.31L30.8498 300.01C30.8498 300.01 31.8198 297.92 32.3498 297.62C32.8798 297.32 33.3598 297.67 33.3598 297.67L32.9098 296.76L33.6798 295.18L36.1198 294.93C36.1198 294.93 35.3198 293.76 34.3798 294.09L36.1798 292.23C36.1798 292.23 37.3498 291.84 38.0798 292.26C38.8098 292.68 37.2798 291.6 37.2798 291.6C37.2798 291.6 39.1598 289.27 39.6398 289.14C40.1198 289.01 42.5798 291.25 42.5798 291.25L43.3198 290.83L41.0598 288.32L44.6598 286.56L46.0998 288.11L45.2698 285.92C45.2698 285.92 48.1698 285.26 48.9898 284.99C49.8198 284.73 52.2798 286.74 52.2798 286.74L50.8498 284.35L53.8598 284.38L56.2098 286.67L55.3598 283.96L57.0198 284.18L57.7898 285.77L58.3498 284.19C58.3598 284.2 63.7698 282.91 68.4098 286.72Z" fill="#100B41"/>
<path d="M68.4099 286.72L59.2099 284.97L58.1399 283.09L57.6099 284.41L54.8299 283.11L54.0499 280.92L52.9999 281.52L50.3099 281.04L49.3899 279.43L48.5499 280.56L43.2899 279L42.1699 277.04L42.3899 279.05C42.3899 279.05 34.8299 277.69 31.8799 274.63C31.8799 274.63 44.4099 267.59 53.8399 272.25L51.8799 273.37L54.4499 272.83L58.3599 274.69L57.6799 276.38L60.1399 274.98C60.1399 274.99 67.0899 279.02 68.4099 286.72Z" fill="#100B41"/>
<path d="M65.7998 283.19L69.1698 286.43C69.1698 286.43 14.2598 330.57 28.6098 448.74H18.8598C18.8598 448.74 3.01981 342.7 65.7998 283.19Z" fill="#100B41"/>
<path d="M124.729 397.56C124.729 397.56 126.139 396.24 128.149 396.35L128.179 396.64L128.539 396.2C128.539 396.2 129.799 396.41 130.209 396.79L130.169 397.17L130.559 396.95L131.199 397.37L130.919 397.96L131.599 397.78C131.599 397.78 132.349 398.42 132.519 398.77L132.289 399.07L132.739 399.15C132.739 399.15 134.439 401.13 134.239 403.24L132.619 401.53L132.589 401.24L132.399 401.28L130.819 400.17L130.959 399.83L130.539 399.97L130.179 399.8C130.179 399.8 130.229 399.34 130.419 399.26C130.609 399.18 129.739 399.57 129.739 399.57L128.359 398.98L128.529 398.41L127.889 398.82L126.679 398.37L126.699 397.95L126.329 398.14C126.329 398.12 125.809 398.16 124.729 397.56Z" fill="#100B41"/>
<path d="M124.729 397.56C124.729 397.56 130.609 393.76 133.709 394.44C133.709 394.44 133.279 393.94 132.839 393.92L132.619 394.04L132.559 393.64L132.429 393.57L132.139 393.85V393.43L131.839 393.4C131.839 393.4 130.739 393.85 130.629 393.82C130.519 393.79 131.399 393.26 131.399 393.26C131.399 393.26 130.379 392.96 128.969 393.46L128.299 394.39L128.669 393.64C128.669 393.64 127.829 393.89 126.909 394.64C126.809 394.72 126.649 395.22 126.649 395.22L126.499 395C126.499 394.99 125.339 395.55 124.729 397.56Z" fill="#100B41"/>
<path d="M124.729 397.56C124.729 397.56 125.679 395.94 126.089 395.46L125.649 395.1L126.259 395.3L126.879 394.54L126.659 394.15L127.019 394.28L127.639 393.77C127.639 393.77 127.279 393.33 127.369 393.3C127.459 393.27 127.849 393.59 127.849 393.59L128.999 392.65L128.929 392.25L129.109 392.56C129.109 392.56 130.989 390.92 131.359 390.16C131.729 389.4 127.489 390.3 125.879 391.86L126.229 392.07L125.639 392.12C125.639 392.12 124.939 392.77 124.769 393.24C124.769 393.24 125.369 393.17 125.389 393.49C125.389 393.49 124.469 393.6 124.219 393.85C123.969 394.11 123.149 395.94 124.729 397.56Z" fill="#100B41"/>
<path d="M124.729 397.56C124.729 397.56 124.199 394.84 124.269 393.62L123.959 393.54L124.409 393.28L124.259 392.3L123.899 392.38L124.489 392.04L124.529 391.07L124.069 390.88L124.679 390.79L124.869 390.04L124.469 389.79L124.949 389.75L125.279 387.83C125.279 387.83 123.589 388.41 122.729 390.02L123.059 390.57L122.629 390.32C122.629 390.32 122.039 391.96 122.089 392.91L122.549 393.6L121.939 393.45C121.939 393.45 122.949 397.09 124.729 397.56Z" fill="#100B41"/>
<path d="M124.73 397.56C125.17 397.51 125.98 398 126.24 398.49C126.77 399.47 126.64 399.5 126.38 399.59C126.11 399.68 125.31 400.02 125.31 400.02L126.12 400.27L125.98 401.2L125.46 401.32L125.93 401.59L125.67 402.51L125.16 402.8L125.64 403.21L124.95 406.31L124.29 405.58L124.59 405.23L124.17 405.36L123.73 404.58C123.73 404.58 124.15 404.13 124.41 404.09C124.67 404.05 123.87 404.08 123.44 404.39L123.18 403.93C123.18 403.93 123.39 403.55 123.74 403.61C123.74 403.61 123.45 403.35 122.96 403.56L122.29 402.38L123.16 401.35L122.2 401.86C122.2 401.86 122.15 401.53 122.05 400.91L123.12 400.16L122.25 400.51C122.27 400.51 121.99 397.89 124.73 397.56Z" fill="#100B41"/>
<path d="M124.729 397.56C124.729 397.56 118.339 399.11 114.769 402.03C114.769 402.03 114.579 401.8 114.999 401.15L115.369 401.03L115.129 400.95C115.129 400.95 115.379 400.42 115.509 400.34C115.639 400.26 115.769 400.35 115.769 400.35L115.659 400.12L115.859 399.72L116.479 399.66C116.479 399.66 116.269 399.36 116.039 399.44L116.499 398.96C116.499 398.96 116.799 398.86 116.989 398.97C117.179 399.08 116.789 398.8 116.789 398.8C116.789 398.8 117.269 398.21 117.389 398.17C117.509 398.14 118.139 398.71 118.139 398.71L118.329 398.6L117.749 397.96L118.669 397.51L119.039 397.91L118.829 397.35C118.829 397.35 119.569 397.18 119.779 397.11C119.989 397.04 120.619 397.56 120.619 397.56L120.249 396.95L121.019 396.96L121.619 397.55L121.399 396.86L121.819 396.92L122.019 397.33L122.159 396.93C122.159 396.92 123.549 396.59 124.729 397.56Z" fill="#100B41"/>
<path d="M124.729 397.56L122.379 397.11L122.109 396.63L121.979 396.97L121.269 396.64L121.069 396.08L120.799 396.23L120.109 396.11L119.879 395.7L119.659 395.99L118.319 395.59L118.029 395.09L118.089 395.6C118.089 395.6 116.159 395.25 115.409 394.47C115.409 394.47 118.609 392.67 121.019 393.86L120.519 394.15L121.179 394.01L122.179 394.49L122.009 394.92L122.639 394.56C122.619 394.56 124.399 395.59 124.729 397.56Z" fill="#100B41"/>
<path d="M124.07 396.66L124.93 397.49C124.93 397.49 110.9 408.77 114.57 438.96H112.08C112.07 438.95 108.03 411.86 124.07 396.66Z" fill="#100B41"/>
<path d="M135.51 415.31C135.51 415.31 136.87 414.84 138.2 415.52L138.13 415.73L138.51 415.54C138.51 415.54 139.3 416.06 139.46 416.45L139.31 416.7L139.65 416.67L139.96 417.15L139.59 417.46L140.11 417.55C140.11 417.55 140.42 418.21 140.44 418.5L140.19 418.63L140.47 418.82C140.47 418.82 141.02 420.68 140.25 422.05L139.67 420.4L139.74 420.19L139.6 420.16L138.86 418.92L139.06 418.73L138.73 418.7L138.54 418.47C138.54 418.47 138.71 418.18 138.87 418.18C139.02 418.18 138.32 418.19 138.32 418.19L137.56 417.37L137.85 417.03L137.29 417.12L136.61 416.45L136.75 416.17L136.44 416.18C136.43 416.18 136.06 416.04 135.51 415.31Z" fill="#100B41"/>
<path d="M135.51 415.31C135.51 415.31 140.66 414.51 142.56 415.91C142.56 415.91 142.42 415.44 142.13 415.29L141.95 415.31L142.03 415.02L141.96 414.93L141.68 415.04L141.81 414.75L141.61 414.64C141.61 414.64 140.73 414.61 140.66 414.56C140.59 414.51 141.36 414.41 141.36 414.41C141.36 414.41 140.75 413.9 139.65 413.81L138.91 414.24L139.39 413.84C139.39 413.84 138.74 413.76 137.89 413.99C137.8 414.01 137.54 414.3 137.54 414.3L137.51 414.1C137.49 414.1 136.54 414.13 135.51 415.31Z" fill="#100B41"/>
<path d="M135.51 415.31C135.51 415.31 136.65 414.5 137.07 414.3L136.88 413.93L137.24 414.25L137.89 413.92L137.86 413.59L138.06 413.79L138.63 413.63C138.63 413.63 138.52 413.22 138.59 413.23C138.66 413.23 138.83 413.58 138.83 413.58L139.89 413.29L139.96 412.99L139.99 413.25C139.99 413.25 141.77 412.7 142.25 412.3C142.73 411.89 139.58 411.22 138.01 411.79L138.18 412.04L137.76 411.9C137.76 411.9 137.09 412.13 136.83 412.4C136.83 412.4 137.26 412.53 137.18 412.76C137.18 412.76 136.52 412.56 136.28 412.65C136.04 412.73 134.92 413.73 135.51 415.31Z" fill="#100B41"/>
<path d="M135.511 415.31C135.511 415.31 135.981 413.31 136.391 412.49L136.211 412.34L136.591 412.3L136.781 411.59L136.511 411.54L137.011 411.49L137.331 410.84L137.071 410.57L137.511 410.7L137.871 410.25L137.671 409.96L138.011 410.08L138.821 408.87C138.821 408.87 137.501 408.75 136.421 409.59L136.481 410.06L136.271 409.76C136.271 409.76 135.381 410.7 135.121 411.35L135.231 411.96L134.861 411.67C134.861 411.68 134.441 414.45 135.511 415.31Z" fill="#100B41"/>
<path d="M135.51 415.31C135.83 415.41 136.22 415.99 136.26 416.4C136.33 417.23 136.23 417.2 136.02 417.19C135.81 417.17 135.17 417.16 135.17 417.16L135.65 417.58L135.27 418.17L134.88 418.09L135.12 418.41L134.67 418.96L134.23 419L134.43 419.42L133.02 421.32L132.79 420.63L133.1 420.48L132.77 420.44L132.7 419.78C132.7 419.78 133.12 419.6 133.31 419.65C133.5 419.7 132.95 419.48 132.56 419.56L132.52 419.17C132.52 419.17 132.78 418.98 133 419.12C133 419.12 132.88 418.86 132.49 418.85L132.39 417.84L133.3 417.4L132.5 417.46C132.5 417.46 132.57 417.22 132.69 416.77L133.64 416.58L132.94 416.56C132.94 416.57 133.55 414.7 135.51 415.31Z" fill="#100B41"/>
<path d="M135.51 415.31C135.51 415.31 130.7 414.43 127.38 415.33C127.38 415.33 127.32 415.12 127.8 414.8L128.09 414.83L127.95 414.71C127.95 414.71 128.28 414.42 128.39 414.41C128.5 414.4 128.56 414.5 128.56 414.5L128.55 414.31L128.81 414.1L129.25 414.24C129.25 414.24 129.2 413.98 129.01 413.96L129.47 413.78C129.47 413.78 129.7 413.8 129.8 413.93C129.89 414.06 129.71 413.75 129.71 413.75C129.71 413.75 130.22 413.49 130.31 413.51C130.4 413.52 130.66 414.1 130.66 414.1L130.82 414.08L130.62 413.47L131.38 413.44L131.51 413.82L131.54 413.38C131.54 413.38 132.09 413.49 132.26 413.51C132.43 413.53 132.7 414.07 132.7 414.07L132.64 413.54L133.16 413.78L133.39 414.36L133.45 413.82L133.72 413.99L133.73 414.33L133.95 414.1C133.96 414.1 135 414.29 135.51 415.31Z" fill="#100B41"/>
<path d="M135.51 415.31L134.05 414.29L134.01 413.88L133.82 414.07L133.44 413.63L133.47 413.19L133.24 413.21L132.81 412.92L132.78 412.57L132.55 412.7L131.76 412.02L131.72 411.59L131.6 411.96C131.6 411.96 130.39 411.14 130.12 410.38C130.12 410.38 132.84 410.13 134.12 411.67L133.69 411.71L134.18 411.82L134.72 412.45L134.47 412.69L135 412.64C134.98 412.63 135.88 413.87 135.51 415.31Z" fill="#100B41"/>
<path d="M135.33 414.5L135.66 415.32C135.66 415.32 122.71 418.74 116.06 440.36L114.37 439.61C114.37 439.61 119.83 419.97 135.33 414.5Z" fill="#100B41"/>
<path d="M420.19 450.44C423.58 450.34 423.78 450.46 426.28 450.34C426.63 450.32 427.22 450.19 427.62 450.23C432.41 450.78 437.13 450.28 442.02 450.31C442.86 450.32 443.35 450.31 444.19 450.31C445 449.67 446.55 450.23 447.91 450.23H451.1V390.72C451.1 390.72 429.82 388.62 427.68 404.41C425.54 420.2 403.82 404.76 403.82 420.2C403.82 435.64 391.53 438.89 391.53 438.89H361.85L355.21 428.32L349.72 438.89L341.09 433.2V439.7H264.36L254.95 429.13L236.89 438.07C236.89 438.07 240.65 423.54 220.76 423.54C200.87 423.54 206.86 400.6 195.3 400.6C183.74 400.6 151.97 439.63 151.97 439.63H0V450.26H415.08C417.81 450.34 418.38 450.5 420.19 450.44Z" fill="#100B41"/>
<path d="M402.54 318.35C402.54 318.35 412.52 315.94 421.52 321.75L420.86 323.18L423.71 322.08C423.71 322.08 428.98 326.36 429.85 329.21L428.64 330.86H431.05L432.91 334.48L430.06 336.45L433.68 337.44C433.68 337.44 435.44 342.38 435.33 344.46L433.47 345.23L435.34 346.77C435.34 346.77 437.97 360.37 431.5 369.59L428.54 357.41L429.2 355.98L428.21 355.65L423.82 346.33L425.36 345.12L423.06 344.68L421.85 342.92C421.85 342.92 423.28 340.95 424.37 341.06C425.47 341.17 420.42 340.73 420.42 340.73L415.59 334.37L417.89 332.18L413.83 332.4L409.44 327.13L410.65 325.27L408.46 325.16C408.46 325.15 405.94 323.94 402.54 318.35Z" fill="#100B41"/>
<path d="M402.54 318.35C402.54 318.35 439.73 316.27 452.23 327.56C452.23 327.56 451.57 324.12 449.6 322.88H448.28L449.05 320.87L448.61 320.21L446.53 320.76L447.63 318.79L446.31 317.85C446.31 317.85 440.06 317.03 439.62 316.59C439.18 316.15 444.67 316.04 444.67 316.04C444.67 316.04 440.72 311.98 432.93 310.56L427.39 313.08L431.06 310.56C431.06 310.56 426.52 309.52 420.31 310.56C419.65 310.67 417.57 312.53 417.57 312.53L417.46 311.1C417.46 311.11 410.66 310.67 402.54 318.35Z" fill="#100B41"/>
<path d="M402.54 318.35C402.54 318.35 411.21 313.36 414.33 312.23L413.26 309.43L415.56 311.98L420.41 310.09V307.7L421.73 309.26L425.93 308.52C425.93 308.52 425.44 305.56 425.93 305.64C426.42 305.72 427.38 308.27 427.38 308.27L435.14 306.95L435.86 304.89V306.78C435.86 306.78 448.88 304.15 452.58 301.6C456.28 299.05 434.32 292.06 422.8 295.02L423.87 296.91L420.99 295.59C420.99 295.59 416.05 296.74 414 298.47C414 298.47 416.96 299.7 416.22 301.27C416.22 301.27 411.69 299.38 409.88 299.87C408.08 300.39 399.47 306.69 402.54 318.35Z" fill="#100B41"/>
<path d="M402.541 318.35C402.541 318.35 407.261 304.42 410.771 298.93L409.561 297.72H412.301L414.161 292.78L412.301 292.23H415.921L418.661 287.84L417.011 285.76L420.081 286.97L422.931 284.01L421.721 281.82L424.021 282.92L430.601 274.91C430.601 274.91 421.281 273.15 413.051 278.31L413.161 281.71L411.841 279.41C411.841 279.41 404.821 285.44 402.521 289.94L402.851 294.32L400.441 292.02C400.451 292.02 395.541 311.49 402.541 318.35Z" fill="#100B41"/>
<path d="M402.54 318.35C404.72 319.27 407.15 323.67 407.09 326.63C406.98 332.57 406.28 332.33 404.83 332.06C403.33 331.78 398.77 331.24 398.77 331.24L401.88 334.53L398.77 338.48L396.06 337.66L397.54 340.13L393.92 343.72H390.79L391.94 346.88L380.59 359.39L379.44 354.29L381.74 353.47L379.44 352.98V348.21C379.44 348.21 382.57 347.22 383.88 347.72C385.2 348.21 381.41 346.24 378.61 346.57V343.74C378.61 343.74 380.58 342.56 382.07 343.74C382.07 343.74 381.41 341.79 378.61 341.47V334.23L385.36 331.76L379.6 331.6C379.6 331.6 380.26 329.95 381.41 326.83L388.32 326.17L383.38 325.51C383.4 325.48 388.99 312.64 402.54 318.35Z" fill="#100B41"/>
<path d="M402.54 318.35C402.54 318.35 368.92 308.7 344.73 312.81C344.73 312.81 344.48 311.25 348.1 309.35L350.16 309.76L349.26 308.77C349.26 308.77 351.81 306.96 352.63 306.96C353.45 306.96 353.78 307.7 353.78 307.7L353.86 306.33L355.83 304.99L358.87 306.33C358.87 306.33 358.71 304.41 357.39 304.17L360.76 303.18C360.76 303.18 362.41 303.51 362.98 304.5C363.56 305.49 362.49 303.18 362.49 303.18C362.49 303.18 366.27 301.7 366.93 301.86C367.59 302.02 368.99 306.33 368.99 306.33H370.14L369.15 301.85L374.58 302.19L375.24 304.99L375.73 301.85C375.73 301.85 379.6 303.01 380.75 303.26C381.9 303.51 383.47 307.54 383.47 307.54L383.39 303.76L386.93 305.82L388.16 310.1L388.98 306.33L390.79 307.7L390.63 310.09L392.36 308.6C392.36 308.61 399.63 310.73 402.54 318.35Z" fill="#100B41"/>
<path d="M402.54 318.35L392.86 310.1V307.16L391.35 308.37L388.94 304.97L389.49 301.86H387.84L384.99 299.49V296.97L383.23 297.74L378.07 292.36V289.29L376.97 291.81C376.97 291.81 368.96 285.12 367.54 279.52C367.54 279.52 387.07 279.63 395.07 291.48H392L395.4 292.58L398.77 297.41L396.83 298.95H400.67C400.67 298.93 406.16 308.37 402.54 318.35Z" fill="#100B41"/>
<path d="M410.47 318.46L403.47 315.17C403.47 315.17 387.6 345.28 383.32 362.48L382.17 363.22L381.01 368.49H380.28L379.62 373.43H378.96L378.14 378.53H377.48L376.82 384.7H376.24L375.58 389.14H374.68V394.57L373.2 395.56V400.83L372.38 401.32V405.43H371.97V411.6H370.65L371.31 416.37H370.65L371.14 423.45H370.23L371.14 427.48L370.23 428.14L370.81 446.82H377.72C377.72 446.82 379.61 422.71 383.89 416.54C383.89 416.54 382.06 416.95 381 418.84L384.46 408.8C384.46 408.8 381.58 410.36 379.69 413.41L381 407.65L380.35 407.16C380.35 407.16 383.86 400.25 382.32 400.25C381.83 400.25 381.33 400.33 381.33 400.33L382.23 396.79L381.41 396.46L383.96 390.45L382.81 390.12C382.81 390.12 384.78 385.68 384.95 383.87L385.77 380.99L385.19 380.41L387.08 375.23L386.67 374.57C386.67 374.57 389.47 369.3 389.63 368.07L389.22 367.66L390.33 364.95L389.8 364.7L391.86 359.11L391.37 358.7L395.15 352.53L394.57 352.28L395.8 350.14L394.98 349.65L398.6 343.4V342.63L400.57 338.46L400.08 337.56L402.47 331.97C402.49 331.95 406.05 323.86 410.47 318.46Z" fill="#100B41"/>
</g>
<defs>
<linearGradient id="paint0_linear_719_7" x1="225.226" y1="-7.7144" x2="225.226" y2="321.001" gradientUnits="userSpaceOnUse">
<stop stop-color="#C35407"/>
<stop offset="0.2056" stop-color="#E89245"/>
<stop offset="0.2561" stop-color="#E89448"/>
<stop offset="0.3004" stop-color="#EA9B53"/>
<stop offset="0.3362" stop-color="#ECA462"/>
<stop offset="0.5819" stop-color="#F6CCA5"/>
<stop offset="0.7779" stop-color="#FDEAD6"/>
<stop offset="0.8055" stop-color="#FCE7D2"/>
<stop offset="0.8302" stop-color="#F9E0C8"/>
<stop offset="0.8537" stop-color="#F4D2B5"/>
<stop offset="0.8765" stop-color="#EDC09C"/>
<stop offset="0.8989" stop-color="#E4A87B"/>
<stop offset="0.9208" stop-color="#D88B52"/>
<stop offset="0.9421" stop-color="#CB6923"/>
<stop offset="0.9437" stop-color="#CA661F"/>
<stop offset="0.974" stop-color="#C35407"/>
</linearGradient>
<radialGradient id="paint1_radial_719_7" cx="0" cy="0" r="1" gradientUnits="userSpaceOnUse" gradientTransform="translate(233 285) scale(236.611 236.611)">
<stop stop-color="#FAB52A"/>
<stop offset="0.4728" stop-color="#F9B329"/>
<stop offset="0.6431" stop-color="#F5AC27"/>
<stop offset="0.7644" stop-color="#EEA123"/>
<stop offset="0.8625" stop-color="#E5901D"/>
<stop offset="0.9456" stop-color="#D97A15"/>
<stop offset="1" stop-color="#CE670E"/>
</radialGradient>
<clipPath id="clip0_719_7">
<rect width="450" height="450" fill="white"/>
</clipPath>
</defs>
</svg>
